<?xml version="1.0" encoding="utf-8"?>
<!-- Generator: Adobe Illustrator 19.0.0, SVG Export Plug-In . SVG Version: 6.00 Build 0)  -->
<svg version="1.1" id="Layer_1" xmlns="http://www.w3.org/2000/svg" xmlns:xlink="http://www.w3.org/1999/xlink" x="0px" y="0px"
	 viewBox="-717 965 101 119" enable-background="new -717 965 101 119" xml:space="preserve">
<g id="Layer_1_1_">
	<g>
		<path fill="#FFFFFF" d="M-631.16,1028.77v3.89l-4.98-6.14h-2.25v0.4l0.64,0.15c0.38,0.08,0.42,0.08,0.42,0.3v5.35
			c0,0.38-0.04,1.07-0.07,1.39c-0.03,0.24-0.08,0.3-0.25,0.32l-0.83,0.14v0.38h3.21v-0.38l-1.11-0.16c-0.15-0.03-0.22-0.11-0.25-0.3
			c-0.04-0.39-0.07-1-0.07-1.4v-4.8l5.85,7.2h0.3v-6.35c0-0.49,0.03-1.06,0.04-1.42c0.02-0.26,0.15-0.28,0.29-0.31l0.82-0.13v-0.38
			h-3.21v0.38l1.14,0.16c0.16,0.03,0.22,0.08,0.24,0.33C-631.19,1027.68-631.16,1028.25-631.16,1028.77 M-638.78,1030.62
			c0-2.41-1.85-4.32-4.43-4.32c-2.56,0-4.41,1.93-4.41,4.32c0,2.43,1.85,4.5,4.41,4.5
			C-640.62,1035.11-638.78,1033.04-638.78,1030.62 M-640.38,1030.62c0,2.06-0.82,4-2.83,4s-2.8-1.82-2.8-4c0-2.04,0.8-3.83,2.8-3.83
			C-641.17,1026.79-640.38,1028.6-640.38,1030.62 M-649.24,1029.32h0.37l-0.16-2.94h-0.29l-0.26,0.35
			c-0.37-0.18-1.01-0.45-2.31-0.45c-2.94,0-4.9,1.82-4.9,4.27c0,2.46,1.7,4.51,4.37,4.51c1.48,0,2.9-0.38,3.52-0.72l-0.07-0.26
			v-2.52c0-0.27,0.09-0.34,0.35-0.45l0.23-0.09v-0.31h-3.27v0.37l0.97,0.23c0.28,0.07,0.34,0.13,0.34,0.32v2.42
			c-0.34,0.33-1.13,0.56-1.82,0.56c-1.65,0-3.02-1.48-3.02-4.14c0-2.12,1.09-3.73,3.26-3.73c1.06,0,1.7,0.34,2.03,0.62
			C-649.67,1027.76-649.35,1028.73-649.24,1029.32 M-659.17,1026.51h-5.43v0.4l0.8,0.16c0.31,0.05,0.35,0.09,0.35,0.29v6.75
			c0,0.19-0.04,0.22-0.37,0.27l-0.79,0.17v0.39h6.72l0.39-2.65h-0.37c-0.18,0.61-0.52,1.41-0.8,1.75c-0.38,0.28-1.25,0.42-1.78,0.42
			h-0.31c-0.57,0-0.96-0.06-1.27-0.1v-3.55h1.63c0.39,0.27,0.62,0.75,0.75,1.31h0.27v-3.1h-0.27c-0.07,0.42-0.37,1.02-0.75,1.25
			h-1.63v-3.19c0.29-0.06,0.73-0.08,1.06-0.08h0.12c0.83,0,1.69,0.22,1.99,0.41c0.26,0.36,0.47,1.03,0.64,1.66h0.37l-0.24-2.71
			C-658.29,1026.43-658.79,1026.51-659.17,1026.51 M-667.14,1034.94h2.07v-0.38l-0.82-0.22c-0.29-0.18-0.55-0.46-0.86-0.92
			l-0.84-1.29c-0.44-0.69-0.64-0.96-0.9-1.13c1.16-0.24,2.17-1.17,2.17-2.27c0-1.48-1.39-2.21-3.23-2.21h-3.95v0.37l0.8,0.18
			c0.26,0.05,0.35,0.08,0.35,0.3v6.75c0,0.19-0.04,0.2-0.37,0.27l-0.79,0.17v0.39h3.73v-0.38l-0.81-0.16
			c-0.29-0.05-0.33-0.08-0.33-0.29v-2.83h1.32l1.28,2.15C-667.89,1034.12-667.44,1034.75-667.14,1034.94 M-669.86,1030.77h-1.05
			v-3.66c0.21-0.05,0.6-0.14,0.83-0.14h0.31c1.35,0,1.98,0.59,1.98,1.79C-667.79,1030.02-668.46,1030.77-669.86,1030.77
			 M-682.69,1030.62c0,2.43,1.85,4.5,4.41,4.5c2.59,0,4.43-2.08,4.43-4.5c0-2.41-1.85-4.32-4.43-4.32
			C-680.84,1026.29-682.69,1028.22-682.69,1030.62 M-681.09,1030.62c0-2.04,0.8-3.83,2.8-3.83c2.05,0,2.83,1.82,2.83,3.83
			c0,2.06-0.82,4-2.83,4C-680.3,1034.61-681.09,1032.79-681.09,1030.62"/>
		<g>
			<g>
				<defs>
					<rect id="SVGID_1_" x="-683.04" y="967.3" width="54" height="87.52"/>
				</defs>
				<clipPath id="SVGID_2_">
					<use xlink:href="#SVGID_1_"  overflow="visible"/>
				</clipPath>
				<path clip-path="url(#SVGID_2_)" fill="#FFFFFF" d="M-629.43,1021.32l-0.11-1.24v-0.01l-0.03,0.01
					c-0.12,0.04-0.38,0.07-0.63,0.07h-2.25v0.22l0.4,0.08c0.14,0.03,0.14,0.03,0.14,0.09v2.98c0,0.06,0,0.07-0.14,0.1l-0.34,0.07
					h-0.01v0.22h1.87v-0.22l-0.51-0.1l-0.03-0.01c-0.09-0.02-0.09-0.02-0.09-0.08v-1.35h0.68c0.12,0.11,0.24,0.43,0.29,0.61v0.02
					h0.18v-1.47h-0.19v0.02c-0.02,0.17-0.16,0.43-0.28,0.53h-0.68v-1.41c0.12-0.03,0.28-0.05,0.39-0.05h0.06
					c0.32,0,0.65,0.09,0.78,0.17c0.11,0.14,0.22,0.42,0.29,0.72l0.01,0.02h0.2V1021.32z M-633.52,1021.98c0-1.1-0.84-1.92-1.96-1.93
					l0,0h-0.03c-1.12,0.01-1.96,0.84-1.96,1.93c0,0.98,0.74,2,1.97,2.01h0.01C-634.25,1023.98-633.52,1022.96-633.52,1021.98
					 M-635.49,1023.71c-0.86,0-1.16-0.93-1.16-1.73c0-0.45,0.09-0.86,0.26-1.15c0.2-0.34,0.5-0.52,0.9-0.52
					c0.39,0,0.69,0.18,0.89,0.52c0.17,0.29,0.26,0.69,0.26,1.15C-634.33,1022.78-634.64,1023.71-635.49,1023.71 M-640.51,1020.41
					l0.2-0.05v-0.22h-1.21v0.22l0.29,0.06c0.07,0.01,0.14,0.03,0.15,0.05c0,0.01,0,0.03-0.02,0.07l-0.81,1.38l-0.91-1.41
					c-0.02-0.03-0.02-0.04-0.02-0.05c0-0.01,0.05-0.02,0.08-0.03l0.31-0.07h0.01v-0.23h-1.55v0.23l0.18,0.07
					c0.08,0.03,0.1,0.05,0.16,0.13l1.17,1.79v1.15c0,0.05-0.01,0.07-0.14,0.09l-0.41,0.09h-0.01v0.22h1.87v-0.22l-0.43-0.09
					c-0.13-0.03-0.13-0.03-0.13-0.09v-1.27l1.06-1.69C-640.65,1020.46-640.6,1020.44-640.51,1020.41 M-645.21,1021.31h0.22
					l-0.05-1.24v-0.01l-0.04,0.01c-0.08,0.04-0.35,0.07-0.48,0.07h-2.38c-0.22,0-0.43-0.03-0.54-0.07l-0.04-0.01l-0.04,1.25v0.01
					h0.21v-0.02c0.06-0.24,0.17-0.58,0.28-0.75c0.11-0.07,0.38-0.14,0.72-0.14h0.19v3.11c0,0.06,0,0.06-0.12,0.09l-0.42,0.08h-0.01
					v0.22h1.85v-0.22l-0.42-0.08h-0.01c-0.12-0.02-0.12-0.02-0.12-0.08v-3.13h0.24c0.29,0,0.46,0.02,0.67,0.14
					c0.1,0.17,0.23,0.5,0.28,0.75L-645.21,1021.31L-645.21,1021.31z M-651.4,1023.91h1.73v-0.22l-0.36-0.08
					c-0.14-0.03-0.14-0.03-0.14-0.1v-2.98c0-0.06,0-0.06,0.14-0.09l0.34-0.08h0.01v-0.22h-1.73v0.22l0.36,0.08
					c0.13,0.03,0.13,0.03,0.13,0.09v2.98c0,0.06,0,0.07-0.14,0.1l-0.34,0.07h-0.01L-651.4,1023.91L-651.4,1023.91z M-654.42,1020.88
					c0-0.34,0.24-0.59,0.59-0.59c0.3,0,0.49,0.15,0.64,0.3c0.1,0.15,0.21,0.44,0.26,0.68v0.02h0.23l-0.04-1.22v-0.01h-0.17
					l-0.12,0.17c-0.24-0.13-0.5-0.19-0.8-0.19c-0.75,0-1.3,0.43-1.3,1.02c0,0.5,0.27,0.83,0.87,1.08l0.38,0.15
					c0.29,0.12,0.57,0.3,0.57,0.72c0,0.43-0.28,0.71-0.74,0.71c-0.35,0-0.54-0.18-0.66-0.33c-0.12-0.23-0.19-0.56-0.24-0.82v-0.02
					h-0.24l0.01,0.11c0,0.11,0,0.24,0.01,0.36c0.01,0.36,0.03,0.76,0.01,0.93v0.03h0.17l0.1-0.17c0.25,0.11,0.55,0.17,0.91,0.17
					c0.85,0,1.42-0.46,1.42-1.13c0-0.59-0.4-0.87-0.84-1.07l-0.55-0.26C-654.28,1021.35-654.42,1021.17-654.42,1020.88
					 M-657.28,1023.91h1v-0.22l-0.35-0.09c-0.13-0.08-0.24-0.21-0.36-0.4l-0.35-0.56c-0.16-0.26-0.28-0.4-0.39-0.48
					c0.47-0.12,0.93-0.5,0.93-1.01c0-0.62-0.55-1-1.45-1h-1.76v0.22l0.36,0.08c0.14,0.03,0.14,0.04,0.14,0.1v2.98
					c0,0.06,0,0.07-0.14,0.1l-0.34,0.07H-660v0.22h1.73v-0.22l-0.36-0.08c-0.12-0.02-0.12-0.03-0.12-0.1v-1.22h0.41l0.55,0.93
					C-657.57,1023.6-657.4,1023.83-657.28,1023.91L-657.28,1023.91L-657.28,1023.91z M-658.43,1022.02h-0.33v-1.57
					c0.06-0.02,0.2-0.05,0.3-0.05h0.1c0.55,0,0.81,0.25,0.81,0.76C-657.54,1021.72-657.85,1022.02-658.43,1022.02 M-663.11,1023.61
					v-1.51h0.63c0.16,0.11,0.27,0.3,0.33,0.56v0.02h0.17v-1.42h-0.17v0.02c-0.03,0.18-0.16,0.43-0.32,0.53h-0.63v-1.36
					c0.11-0.02,0.25-0.03,0.39-0.03h0.05c0.35,0,0.7,0.09,0.84,0.17c0.1,0.13,0.21,0.39,0.29,0.72l0.01,0.02h0.21l-0.11-1.24v-0.01
					l-0.03,0.01c-0.09,0.03-0.31,0.07-0.47,0.07h-2.42v0.22l0.36,0.07c0.14,0.03,0.14,0.04,0.14,0.1v2.98c0,0.06,0,0.07-0.14,0.1
					l-0.34,0.07h-0.01v0.22h3.01l0.18-1.21v-0.01h-0.21l-0.01,0.02c-0.08,0.28-0.24,0.62-0.36,0.76c-0.17,0.12-0.54,0.18-0.76,0.18
					h-0.14c-0.21,0-0.33-0.02-0.44-0.03L-663.11,1023.61L-663.11,1023.61z M-665.41,1020.36L-665.41,1020.36l0.01-0.22h-1.18v0.22
					l0.3,0.07c0.05,0.01,0.1,0.02,0.11,0.04c0,0.01,0,0.03-0.01,0.06l-0.98,2.51l-0.97-2.49c-0.02-0.03-0.02-0.06-0.01-0.07
					c0.01-0.02,0.04-0.03,0.1-0.04l0.33-0.07h0.01v-0.23h-1.55v0.23l0.18,0.06h0.01c0.08,0.03,0.13,0.04,0.16,0.13l1.34,3.41l0,0
					h0.32l1.46-3.42c0.04-0.09,0.08-0.1,0.14-0.12L-665.41,1020.36L-665.41,1020.36z M-672.04,1023.91h1.73v-0.22l-0.36-0.08
					c-0.14-0.03-0.14-0.03-0.14-0.1v-2.98c0-0.06,0-0.06,0.14-0.09l0.34-0.08h0.01v-0.22h-1.72v0.22l0.36,0.08
					c0.14,0.03,0.14,0.03,0.14,0.09v2.98c0,0.06,0,0.07-0.14,0.1l-0.34,0.07h-0.01L-672.04,1023.91L-672.04,1023.91z
					 M-673.58,1020.43l0.38-0.06v-0.22h-1.48v0.22l0.51,0.07c0.06,0.01,0.09,0.04,0.09,0.12c0.02,0.12,0.04,0.35,0.04,0.61v1.58
					l-2.08-2.6l-0.01-0.01h-1.08v0.23l0.31,0.07l0.02,0.01c0.13,0.03,0.13,0.03,0.13,0.1v2.35c0,0.16-0.02,0.34-0.03,0.48
					l-0.01,0.15c-0.01,0.07-0.02,0.09-0.09,0.1l-0.38,0.06v0.22h1.48v-0.22l-0.51-0.07c-0.06-0.01-0.08-0.03-0.09-0.1
					c-0.01-0.11-0.04-0.4-0.04-0.63v-1.98l2.46,3.06l0.01,0.01h0.24v-2.82c0-0.19,0.01-0.36,0.02-0.48v-0.02
					c0-0.03,0-0.06,0.01-0.09v-0.03C-673.68,1020.45-673.65,1020.44-673.58,1020.43 M-678.41,1020.36L-678.41,1020.36l0.01-0.22
					h-1.29v0.22l0.4,0.08c0.12,0.02,0.12,0.04,0.12,0.09v1.9c0,0.77-0.38,1.2-1.03,1.2c-0.57,0-0.9-0.43-0.9-1.15v-1.95
					c0-0.07,0-0.09,0.11-0.11l0.37-0.07h0.01v-0.22h-1.66v0.22l0.31,0.07c0.11,0.02,0.11,0.05,0.11,0.11v1.95
					c0,0.93,0.58,1.5,1.57,1.5c0.93,0,1.49-0.58,1.49-1.55v-1.9c0-0.06,0-0.08,0.12-0.11L-678.41,1020.36L-678.41,1020.36z"/>
			</g>
			<g>
				<defs>
					<rect id="SVGID_3_" x="-683.04" y="967.3" width="54" height="87.52"/>
				</defs>
				<clipPath id="SVGID_4_">
					<use xlink:href="#SVGID_3_"  overflow="visible"/>
				</clipPath>
				<path clip-path="url(#SVGID_4_)" fill="#FFFFFF" d="M-645,980.16c-0.11-2.01-0.33-4.15-1.45-5.76
					c-2.21-3.17-5.96-4.48-9.58-4.45c-3.64,0.03-7.38,1.27-9.58,4.45c-1.12,1.62-1.34,3.75-1.45,5.76c-0.08,1.48-0.14,3.28-0.14,5.1
					c-0.01,1.82,0.05,3.62,0.12,5.1c0.12,2.02,0.35,4.14,1.48,5.77c2.2,3.17,5.94,4.42,9.58,4.45c3.64,0.03,7.37-1.27,9.58-4.45
					c1.12-1.62,1.35-3.75,1.46-5.77c0.08-1.47,0.06-3.24,0.06-5.07C-644.93,983.47-644.92,981.64-645,980.16 M-634.59,991.21
					c-0.74,4.7-4.65,8.16-9.17,9.89c-3.74,1.44-8,2.13-12.28,2.13c-4.26-0.01-8.54-0.69-12.28-2.13c-4.52-1.73-8.44-5.2-9.17-9.89
					c-0.29-1.83-0.49-3.84-0.48-5.94c0.01-2.11,0.19-4.11,0.48-5.95c0.73-4.69,4.65-8.15,9.17-9.89c3.74-1.43,8.02-2.11,12.28-2.12
					c4.28,0,8.54,0.69,12.28,2.12c4.52,1.74,8.43,5.2,9.17,9.89c0.28,1.84,0.48,3.84,0.48,5.95
					C-634.11,987.38-634.3,989.37-634.59,991.21"/>
			</g>
		</g>
		<polygon fill="#FFFFFF" points="-683.04,1013.57 -683.04,1013.3 -629.04,1013.3 -629.04,1013.57 		"/>
		<polygon fill="#FFFFFF" points="-683.04,1041.8 -683.04,1041.52 -629.04,1041.52 -629.04,1041.8 		"/>
		<polygon fill="#FFFFFF" points="-673.34,1048.9 -671.92,1048.9 -671.92,1053.58 -669.8,1053.58 -669.8,1054.71 -673.34,1054.71 		
			"/>
		<path fill="#FFFFFF" d="M-669.02,1050.44h1.34v4.27h-1.34V1050.44L-669.02,1050.44z M-669.13,1049.21c0-0.41,0.32-0.76,0.78-0.76
			c0.46,0,0.78,0.35,0.78,0.76c0,0.41-0.32,0.76-0.78,0.76C-668.81,1049.97-669.13,1049.62-669.13,1049.21L-669.13,1049.21z"/>
		<path fill="#FFFFFF" d="M-663.88,1052.54c0-0.77-0.25-1.17-0.79-1.17c-0.3,0-0.53,0.17-0.65,0.3v2.04
			c0.1,0.04,0.27,0.08,0.53,0.08C-664.23,1053.79-663.88,1053.41-663.88,1052.54L-663.88,1052.54z M-666.64,1054.47v-6.04h1.33v2.35
			c0.21-0.21,0.58-0.44,1.04-0.44c1.04,0,1.81,0.7,1.81,2.21s-1,2.28-2.31,2.28C-665.73,1054.81-666.35,1054.6-666.64,1054.47
			L-666.64,1054.47z"/>
		<path fill="#FFFFFF" d="M-661.7,1050.44h1.33v0.56c0.19-0.32,0.54-0.66,1.06-0.66c0.33,0,0.51,0.07,0.62,0.13l-0.31,1.13
			c-0.08-0.04-0.22-0.11-0.47-0.11c-0.48,0-0.78,0.38-0.9,0.58v2.64h-1.33V1050.44L-661.7,1050.44z"/>
		<path fill="#FFFFFF" d="M-656.01,1053.58v-0.72h-0.14c-0.6,0-1.01,0.18-1.01,0.62c0,0.27,0.21,0.4,0.48,0.4
			C-656.36,1053.88-656.16,1053.73-656.01,1053.58L-656.01,1053.58z M-658.42,1053.59c0-1.1,1.12-1.53,2.27-1.53h0.14v-0.2
			c0-0.34-0.15-0.5-0.65-0.5c-0.48,0-0.86,0.22-1.07,0.38l-0.56-0.79c0.32-0.29,0.92-0.63,1.8-0.63c1.24,0,1.81,0.46,1.81,1.63v1.4
			c0,0.62,0.06,1.06,0.12,1.35h-1.3c-0.03-0.1-0.07-0.31-0.08-0.44c-0.21,0.26-0.61,0.55-1.17,0.55
			C-657.84,1054.81-658.42,1054.38-658.42,1053.59L-658.42,1053.59z"/>
		<path fill="#FFFFFF" d="M-653.7,1050.44h1.33v0.56c0.19-0.32,0.54-0.66,1.06-0.66c0.33,0,0.51,0.07,0.62,0.13l-0.31,1.13
			c-0.08-0.04-0.22-0.11-0.47-0.11c-0.48,0-0.78,0.38-0.9,0.58v2.64h-1.33V1050.44L-653.7,1050.44z"/>
		<path fill="#FFFFFF" d="M-650.14,1050.44h1.34v4.27h-1.34V1050.44L-650.14,1050.44z M-650.25,1049.21c0-0.41,0.32-0.76,0.78-0.76
			c0.46,0,0.78,0.35,0.78,0.76c0,0.41-0.32,0.76-0.78,0.76C-649.93,1049.97-650.25,1049.62-650.25,1049.21L-650.25,1049.21z"/>
		<path fill="#FFFFFF" d="M-645.22,1052.06c-0.01-0.44-0.18-0.79-0.64-0.79c-0.44,0-0.68,0.28-0.76,0.79H-645.22L-645.22,1052.06z
			 M-648.02,1052.56c0-1.38,0.97-2.22,2.17-2.22c1.39,0,2.04,0.95,1.89,2.6h-2.63c0.06,0.55,0.38,0.92,1,0.92
			c0.58,0,0.87-0.17,1.09-0.27l0.41,0.83c-0.3,0.17-0.72,0.41-1.63,0.41C-647.17,1054.81-648.02,1053.94-648.02,1052.56
			L-648.02,1052.56z"/>
		<path fill="#FFFFFF" d="M-643.46,1054.41l0.43-0.92c0.17,0.11,0.59,0.35,1.06,0.35c0.42,0,0.65-0.1,0.65-0.31
			c0-0.25-0.52-0.31-1.12-0.61c-0.57-0.28-0.88-0.61-0.88-1.24c0-0.84,0.67-1.35,1.67-1.35c0.74,0,1.19,0.21,1.4,0.32l-0.44,0.9
			c-0.17-0.1-0.51-0.25-0.91-0.25c-0.39,0-0.55,0.12-0.55,0.31c0,0.25,0.41,0.3,0.9,0.5c0.66,0.27,1.12,0.58,1.12,1.3
			c0,0.93-0.66,1.4-1.75,1.4C-642.7,1054.81-643.2,1054.59-643.46,1054.41L-643.46,1054.41z"/>
	</g>
	<g display="none">
		<path display="inline" fill="#FFFFFF" d="M-248.74,1119.93v7.78l-9.97-12.3h-4.5v0.79l1.28,0.29c0.76,0.17,0.84,0.17,0.84,0.6
			v10.71c0,0.77-0.08,2.15-0.14,2.78c-0.05,0.49-0.16,0.6-0.5,0.65l-1.65,0.28v0.76h6.43v-0.76l-2.23-0.33
			c-0.3-0.06-0.44-0.22-0.49-0.6c-0.08-0.79-0.13-2.01-0.13-2.8v-9.6l11.71,14.42h0.61v-12.7c0-0.99,0.05-2.12,0.08-2.84
			c0.03-0.51,0.3-0.57,0.57-0.62l1.64-0.27v-0.77h-6.43v0.77l2.29,0.32c0.33,0.06,0.44,0.17,0.49,0.65
			C-248.8,1117.75-248.74,1118.89-248.74,1119.93 M-264,1123.63c0-4.82-3.7-8.65-8.86-8.65c-5.12,0-8.82,3.86-8.82,8.65
			c0,4.87,3.71,9,8.82,9C-267.68,1132.63-264,1128.47-264,1123.63 M-267.19,1123.63c0,4.13-1.63,8-5.67,8c-4.03,0-5.61-3.64-5.61-8
			c0-4.08,1.61-7.67,5.61-7.67C-268.77,1115.96-267.19,1119.6-267.19,1123.63 M-284.94,1121.04h0.74l-0.32-5.87h-0.57l-0.52,0.71
			c-0.73-0.36-2.01-0.9-4.63-0.9c-5.89,0-9.81,3.65-9.81,8.55c0,4.92,3.41,9.03,8.75,9.03c2.96,0,5.8-0.76,7.06-1.44l-0.13-0.52
			v-5.04c0-0.54,0.19-0.68,0.71-0.9l0.46-0.19v-0.63h-6.54v0.73l1.94,0.46c0.57,0.14,0.68,0.26,0.68,0.65v4.84
			c-0.68,0.66-2.26,1.12-3.65,1.12c-3.3,0-6.05-2.96-6.05-8.29c0-4.25,2.18-7.46,6.52-7.46c2.12,0,3.4,0.68,4.06,1.25
			C-285.79,1117.91-285.16,1119.84-284.94,1121.04 M-304.81,1115.41h-10.87v0.79l1.61,0.32c0.63,0.11,0.71,0.19,0.71,0.57v13.52
			c0,0.38-0.08,0.43-0.73,0.54l-1.58,0.33v0.79h13.46l0.79-5.3h-0.73c-0.35,1.22-1.03,2.83-1.61,3.51c-0.76,0.57-2.5,0.84-3.57,0.84
			h-0.63c-1.14,0-1.93-0.11-2.53-0.19v-7.1h3.27c0.79,0.54,1.25,1.5,1.5,2.61h0.55v-6.2h-0.55c-0.13,0.84-0.74,2.04-1.5,2.51h-3.27
			v-6.39c0.57-0.11,1.47-0.16,2.13-0.16h0.25c1.66,0,3.38,0.43,3.98,0.81c0.51,0.71,0.95,2.07,1.28,3.32h0.73l-0.49-5.42
			C-303.04,1115.24-304.05,1115.41-304.81,1115.41 M-320.77,1132.28h4.14v-0.76l-1.63-0.44c-0.57-0.35-1.11-0.92-1.71-1.85
			l-1.69-2.58c-0.87-1.39-1.28-1.93-1.8-2.26c2.32-0.49,4.34-2.34,4.34-4.54c0-2.96-2.78-4.43-6.46-4.43h-7.9v0.74l1.61,0.35
			c0.51,0.11,0.7,0.17,0.7,0.6v13.52c0,0.38-0.08,0.41-0.73,0.54l-1.58,0.33v0.79h7.47v-0.76l-1.63-0.33
			c-0.58-0.11-0.66-0.17-0.66-0.57v-5.66h2.64l2.56,4.3C-322.26,1130.64-321.36,1131.89-320.77,1132.28 M-326.22,1123.93h-2.1v-7.32
			c0.41-0.11,1.2-0.27,1.67-0.27h0.62c2.7,0,3.96,1.17,3.96,3.59C-322.07,1122.43-323.41,1123.93-326.22,1123.93 M-351.9,1123.63
			c0,4.87,3.71,9,8.83,9c5.18,0,8.86-4.16,8.86-9c0-4.82-3.71-8.65-8.86-8.65C-348.19,1114.97-351.9,1118.84-351.9,1123.63
			 M-348.68,1123.63c0-4.08,1.6-7.67,5.61-7.67c4.09,0,5.67,3.64,5.67,7.67c0,4.13-1.64,8-5.67,8
			C-347.1,1131.62-348.68,1127.98-348.68,1123.63"/>
		<g display="inline">
			<g>
				<defs>
					<rect id="SVGID_5_" x="-352.59" y="996.89" width="108.09" height="175.18"/>
				</defs>
				<clipPath id="SVGID_6_">
					<use xlink:href="#SVGID_5_"  overflow="visible"/>
				</clipPath>
				<path clip-path="url(#SVGID_6_)" fill="#FFFFFF" d="M-245.29,1105.01l-0.23-2.48l-0.01-0.03l-0.06,0.02
					c-0.23,0.07-0.77,0.13-1.25,0.13h-4.5v0.45l0.81,0.16c0.27,0.06,0.27,0.06,0.27,0.19v5.96c0,0.13,0,0.13-0.29,0.19l-0.69,0.15
					l-0.01,0.01v0.44h3.74v-0.44l-1.02-0.2l-0.07-0.01c-0.18-0.03-0.18-0.03-0.18-0.15v-2.71h1.36c0.23,0.22,0.49,0.86,0.57,1.22
					l0.01,0.04h0.37v-2.93h-0.37v0.04c-0.05,0.34-0.33,0.86-0.57,1.06h-1.36v-2.82c0.24-0.06,0.56-0.1,0.78-0.1h0.12
					c0.63,0,1.29,0.18,1.56,0.35c0.21,0.28,0.45,0.85,0.59,1.44l0.01,0.04h0.42V1105.01z M-253.46,1106.33
					c0-2.19-1.68-3.85-3.92-3.87l0,0h-0.06c-2.24,0.02-3.93,1.67-3.93,3.87c0,1.97,1.48,4.01,3.94,4.02h0.02
					C-254.94,1110.34-253.46,1108.3-253.46,1106.33 M-257.41,1109.8c-1.71-0.01-2.32-1.87-2.32-3.47c0-0.91,0.19-1.72,0.52-2.29
					c0.41-0.69,1.01-1.04,1.8-1.04c0.78,0,1.39,0.35,1.79,1.04c0.34,0.58,0.52,1.39,0.52,2.29
					C-255.09,1107.93-255.7,1109.8-257.41,1109.8 M-267.46,1103.2l0.39-0.1v-0.45h-2.43v0.45l0.58,0.11
					c0.14,0.03,0.27,0.06,0.29,0.1c0.01,0.02,0.01,0.06-0.04,0.13l-1.63,2.77l-1.83-2.81c-0.04-0.06-0.04-0.08-0.04-0.09
					c0.01-0.02,0.1-0.04,0.17-0.06l0.61-0.15l0.01-0.01v-0.45h-3.1v0.45l0.37,0.13c0.16,0.06,0.2,0.1,0.31,0.27l2.33,3.58v2.31
					c0,0.1-0.03,0.14-0.28,0.19l-0.83,0.17l-0.02,0.01v0.44h3.74v-0.44l-0.86-0.18c-0.27-0.05-0.27-0.06-0.27-0.19v-2.53l2.12-3.38
					C-267.73,1103.29-267.64,1103.25-267.46,1103.2 M-276.87,1105h0.43l-0.09-2.49v-0.03l-0.07,0.03c-0.16,0.08-0.7,0.14-0.96,0.14
					h-4.77c-0.44,0-0.86-0.06-1.09-0.15l-0.07-0.03l-0.09,2.5v0.02h0.42l0.01-0.05c0.12-0.48,0.34-1.16,0.57-1.5
					c0.22-0.13,0.76-0.27,1.45-0.27h0.37v6.23c0,0.12,0,0.12-0.25,0.17l-0.83,0.17l-0.01,0.01v0.44h3.7v-0.44l-0.84-0.17l-0.03-0.01
					c-0.24-0.05-0.24-0.05-0.24-0.17v-6.23h0.49c0.57,0,0.92,0.04,1.33,0.29c0.21,0.34,0.46,1.01,0.56,1.49L-276.87,1105
					L-276.87,1105z M-289.25,1110.2h3.47v-0.44l-0.72-0.15c-0.27-0.06-0.27-0.07-0.27-0.19v-5.96c0-0.12,0-0.13,0.29-0.19l0.69-0.16
					h0.01v-0.45h-3.47v0.45l0.72,0.16c0.27,0.06,0.27,0.06,0.27,0.19v5.96c0,0.13,0,0.13-0.28,0.19l-0.69,0.15l-0.02,0.01
					L-289.25,1110.2L-289.25,1110.2z M-295.3,1104.14c0-0.69,0.49-1.18,1.19-1.18c0.6,0,0.98,0.3,1.29,0.6
					c0.2,0.31,0.41,0.88,0.51,1.37l0.01,0.05h0.45l-0.08-2.43v-0.02h-0.33l-0.24,0.33c-0.48-0.26-1-0.39-1.59-0.39
					c-1.51,0-2.6,0.86-2.6,2.04c0,0.99,0.54,1.66,1.75,2.16l0.75,0.31c0.59,0.25,1.13,0.59,1.13,1.44c0,0.87-0.57,1.41-1.49,1.41
					c-0.71,0-1.08-0.35-1.32-0.66c-0.23-0.45-0.38-1.11-0.48-1.64v-0.04h-0.47l0.01,0.22c0,0.23,0.01,0.47,0.02,0.72
					c0.03,0.72,0.05,1.53,0.02,1.85v0.06h0.35l0.2-0.34c0.5,0.23,1.1,0.34,1.82,0.34c1.7,0,2.84-0.91,2.84-2.27
					c0-1.19-0.8-1.74-1.67-2.15l-1.1-0.52C-295.03,1105.08-295.3,1104.72-295.3,1104.14 M-301.02,1110.19l2,0.01v-0.44l-0.69-0.19
					c-0.26-0.17-0.49-0.41-0.72-0.8l-0.7-1.12c-0.33-0.51-0.56-0.8-0.77-0.96c0.93-0.24,1.86-1.01,1.86-2.03
					c0-1.24-1.11-2.01-2.9-2.01h-3.52v0.43l0.71,0.17c0.27,0.06,0.27,0.07,0.27,0.2v5.96c0,0.13,0,0.13-0.28,0.19l-0.69,0.15
					l-0.01,0.01v0.44h3.46v-0.44l-0.72-0.15c-0.25-0.05-0.25-0.07-0.25-0.2v-2.43h0.83l1.1,1.87
					C-301.61,1109.58-301.27,1110.04-301.02,1110.19L-301.02,1110.19L-301.02,1110.19z M-303.33,1106.41h-0.66v-3.14
					c0.12-0.03,0.4-0.11,0.61-0.11h0.2c1.09,0,1.63,0.5,1.63,1.53C-301.55,1105.82-302.17,1106.41-303.33,1106.41 M-312.69,1109.59
					v-3.03h1.26c0.31,0.22,0.54,0.6,0.65,1.11l0.01,0.04h0.34v-2.85h-0.34l-0.01,0.04c-0.06,0.35-0.33,0.87-0.65,1.07h-1.26v-2.72
					c0.23-0.04,0.5-0.07,0.78-0.07h0.11c0.7,0,1.41,0.18,1.69,0.35c0.2,0.26,0.41,0.79,0.58,1.44l0.01,0.04h0.42l-0.22-2.48v-0.03
					l-0.07,0.02c-0.18,0.06-0.63,0.13-0.94,0.13h-4.84v0.45l0.71,0.15c0.27,0.06,0.27,0.07,0.27,0.2v5.96c0,0.13,0,0.13-0.28,0.19
					l-0.69,0.15l-0.01,0.01v0.44h6.02l0.36-2.42v-0.02h-0.42l-0.01,0.04c-0.16,0.56-0.49,1.24-0.72,1.52
					c-0.33,0.25-1.09,0.36-1.52,0.36h-0.28c-0.42,0-0.66-0.03-0.88-0.06L-312.69,1109.59L-312.69,1109.59z M-317.3,1103.1l0.01-0.01
					v-0.44h-2.36v0.45l0.61,0.14c0.09,0.02,0.21,0.05,0.23,0.09c0.01,0.02,0,0.06-0.02,0.12l-1.96,5.02l-1.94-4.99
					c-0.03-0.07-0.04-0.11-0.02-0.14c0.02-0.04,0.09-0.06,0.2-0.09l0.65-0.14l0.01-0.01v-0.45h-3.09v0.45l0.36,0.12l0.02,0.01
					c0.15,0.05,0.25,0.08,0.31,0.25l2.69,6.83l0.01,0.01h0.64l2.92-6.84c0.08-0.18,0.17-0.21,0.28-0.25L-317.3,1103.1L-317.3,1103.1
					z M-330.57,1110.2h3.47v-0.44l-0.71-0.15c-0.27-0.06-0.27-0.07-0.27-0.19v-5.96c0-0.12,0-0.13,0.28-0.19l0.69-0.16h0.01v-0.45
					h-3.47v0.45l0.72,0.16c0.27,0.06,0.27,0.06,0.27,0.19v5.96c0,0.13,0,0.13-0.29,0.19l-0.68,0.15l-0.02,0.01L-330.57,1110.2
					L-330.57,1110.2z M-333.66,1103.23l0.75-0.12v-0.45h-2.97v0.45l1.02,0.15c0.12,0.02,0.17,0.09,0.18,0.24
					c0.03,0.24,0.07,0.7,0.07,1.23v3.16l-4.17-5.21l-0.02-0.02h-2.16v0.45l0.63,0.15l0.05,0.01c0.25,0.06,0.26,0.06,0.26,0.2v4.7
					c0,0.32-0.03,0.69-0.05,0.96l-0.02,0.3c-0.02,0.14-0.04,0.17-0.17,0.2l-0.76,0.13v0.44h2.96v-0.45l-1.02-0.15
					c-0.13-0.02-0.15-0.06-0.17-0.2c-0.03-0.23-0.07-0.8-0.07-1.25v-3.96l4.92,6.13l0.01,0.02h0.47v-5.64
					c0-0.38,0.03-0.72,0.04-0.97v-0.03c0.01-0.07,0.01-0.13,0.02-0.18v-0.07C-333.86,1103.28-333.8,1103.25-333.66,1103.23
					 M-343.33,1103.1h0.01v-0.45h-2.59v0.45l0.79,0.16c0.24,0.05,0.24,0.09,0.24,0.19v3.8c0,1.53-0.75,2.41-2.06,2.41
					c-1.14,0-1.81-0.86-1.81-2.3v-3.9c0-0.14,0.01-0.17,0.22-0.21l0.74-0.15h0.02v-0.45h-3.31v0.45l0.62,0.14
					c0.21,0.05,0.23,0.09,0.23,0.21v3.91c0,1.87,1.17,2.99,3.14,2.99c1.87,0,2.98-1.16,2.98-3.1v-3.8c0-0.11,0-0.16,0.24-0.21
					L-343.33,1103.1L-343.33,1103.1z"/>
			</g>
			<g>
				<defs>
					<rect id="SVGID_7_" x="-352.59" y="996.89" width="108.09" height="175.18"/>
				</defs>
				<clipPath id="SVGID_8_">
					<use xlink:href="#SVGID_7_"  overflow="visible"/>
				</clipPath>
				<path clip-path="url(#SVGID_8_)" fill="#FFFFFF" d="M-276.45,1022.63c-0.22-4.02-0.65-8.3-2.9-11.54
					c-4.43-6.35-11.92-8.97-19.18-8.91c-7.28,0.06-14.77,2.55-19.18,8.91c-2.25,3.24-2.69,7.52-2.91,11.54
					c-0.16,2.96-0.27,6.56-0.28,10.21c-0.02,3.65,0.09,7.26,0.24,10.2c0.23,4.03,0.71,8.29,2.96,11.55
					c4.4,6.35,11.89,8.84,19.18,8.9c7.28,0.07,14.76-2.55,19.18-8.9c2.25-3.25,2.71-7.51,2.92-11.55c0.16-2.95,0.12-6.49,0.12-10.14
					C-276.31,1029.25-276.3,1025.59-276.45,1022.63 M-255.6,1044.74c-1.48,9.4-9.32,16.34-18.36,19.8
					c-7.48,2.88-16.02,4.27-24.58,4.26c-8.53-0.01-17.1-1.38-24.59-4.26c-9.05-3.46-16.89-10.4-18.36-19.8
					c-0.58-3.67-0.98-7.68-0.96-11.9c0.02-4.22,0.39-8.23,0.96-11.91c1.47-9.39,9.3-16.32,18.36-19.8
					c7.49-2.87,16.06-4.23,24.59-4.25c8.56-0.01,17.1,1.38,24.58,4.25c9.04,3.48,16.88,10.41,18.36,19.8
					c0.57,3.68,0.95,7.69,0.95,11.91C-254.65,1037.07-255.03,1041.07-255.6,1044.74"/>
			</g>
		</g>
		<polygon display="inline" fill="#FFFFFF" points="-352.59,1089.51 -352.59,1088.96 -244.5,1088.96 -244.5,1089.51 		"/>
		<polygon display="inline" fill="#FFFFFF" points="-352.59,1146.01 -352.59,1145.46 -244.5,1145.46 -244.5,1146.01 		"/>
		<polygon display="inline" fill="#FFFFFF" points="-333.18,1160.23 -330.33,1160.23 -330.33,1169.6 -326.09,1169.6 
			-326.09,1171.85 -333.18,1171.85 		"/>
		<path display="inline" fill="#FFFFFF" d="M-324.53,1163.3h2.69v8.55h-2.69V1163.3L-324.53,1163.3z M-324.75,1160.84
			c0-0.82,0.65-1.52,1.57-1.52c0.93,0,1.57,0.7,1.57,1.52c0,0.82-0.65,1.52-1.57,1.52
			C-324.11,1162.36-324.75,1161.66-324.75,1160.84L-324.75,1160.84z"/>
		<path display="inline" fill="#FFFFFF" d="M-314.23,1167.51c0-1.54-0.51-2.34-1.59-2.34c-0.59,0-1.07,0.33-1.29,0.59v4.09
			c0.21,0.09,0.54,0.16,1.06,0.16C-314.95,1170-314.23,1169.25-314.23,1167.51L-314.23,1167.51z M-319.77,1171.38v-12.1h2.65v4.7
			c0.42-0.42,1.15-0.89,2.08-0.89c2.08,0,3.61,1.4,3.61,4.42s-2.01,4.56-4.63,4.56C-317.93,1172.06-319.19,1171.64-319.77,1171.38
			L-319.77,1171.38z"/>
		<path display="inline" fill="#FFFFFF" d="M-309.88,1163.3h2.65v1.12c0.38-0.65,1.08-1.33,2.13-1.33c0.66,0,1.03,0.14,1.24,0.26
			l-0.63,2.27c-0.16-0.09-0.44-0.21-0.94-0.21c-0.96,0-1.55,0.75-1.8,1.15v5.29h-2.65V1163.3L-309.88,1163.3z"/>
		<path display="inline" fill="#FFFFFF" d="M-298.49,1169.58v-1.43h-0.28c-1.2,0-2.03,0.37-2.03,1.24c0,0.54,0.42,0.8,0.96,0.8
			C-299.19,1170.19-298.78,1169.9-298.49,1169.58L-298.49,1169.58z M-303.31,1169.62c0-2.2,2.23-3.05,4.54-3.05h0.28v-0.4
			c0-0.68-0.3-1-1.29-1c-0.96,0-1.73,0.44-2.15,0.77l-1.12-1.59c0.65-0.58,1.85-1.26,3.6-1.26c2.48,0,3.61,0.93,3.61,3.26v2.79
			c0,1.24,0.12,2.13,0.24,2.71h-2.6c-0.07-0.21-0.14-0.63-0.16-0.89c-0.42,0.52-1.22,1.1-2.34,1.1
			C-302.15,1172.06-303.31,1171.19-303.31,1169.62L-303.31,1169.62z"/>
		<path display="inline" fill="#FFFFFF" d="M-293.87,1163.3h2.65v1.12c0.38-0.65,1.08-1.33,2.13-1.33c0.66,0,1.03,0.14,1.24,0.26
			l-0.63,2.27c-0.16-0.09-0.44-0.21-0.94-0.21c-0.96,0-1.55,0.75-1.8,1.15v5.29h-2.65V1163.3L-293.87,1163.3z"/>
		<path display="inline" fill="#FFFFFF" d="M-286.73,1163.3h2.69v8.55h-2.69V1163.3L-286.73,1163.3z M-286.96,1160.84
			c0-0.82,0.65-1.52,1.57-1.52c0.93,0,1.57,0.7,1.57,1.52c0,0.82-0.65,1.52-1.57,1.52S-286.96,1161.66-286.96,1160.84
			L-286.96,1160.84z"/>
		<path display="inline" fill="#FFFFFF" d="M-276.88,1166.55c-0.02-0.89-0.37-1.59-1.29-1.59c-0.87,0-1.36,0.56-1.52,1.59H-276.88
			L-276.88,1166.55z M-282.49,1167.54c0-2.76,1.94-4.45,4.35-4.45c2.78,0,4.08,1.9,3.79,5.2h-5.27c0.12,1.1,0.75,1.83,2.01,1.83
			c1.15,0,1.75-0.33,2.18-0.54l0.82,1.66c-0.59,0.33-1.45,0.82-3.26,0.82C-280.79,1172.06-282.49,1170.32-282.49,1167.54
			L-282.49,1167.54z"/>
		<path display="inline" fill="#FFFFFF" d="M-273.37,1171.26l0.86-1.83c0.35,0.23,1.19,0.7,2.11,0.7c0.84,0,1.29-0.21,1.29-0.63
			c0-0.51-1.05-0.61-2.25-1.22c-1.13-0.56-1.76-1.22-1.76-2.48c0-1.68,1.34-2.71,3.33-2.71c1.48,0,2.39,0.42,2.81,0.65l-0.87,1.8
			c-0.35-0.19-1.03-0.51-1.81-0.51c-0.79,0-1.1,0.24-1.1,0.63c0,0.51,0.82,0.61,1.8,0.99c1.33,0.54,2.23,1.17,2.23,2.6
			c0,1.87-1.33,2.81-3.51,2.81C-271.85,1172.06-272.84,1171.61-273.37,1171.26L-273.37,1171.26z"/>
	</g>
</g>
</svg>
