<?xml version="1.0" encoding="utf-8"?>
<!-- Generator: Adobe Illustrator 19.0.0, SVG Export Plug-In . SVG Version: 6.00 Build 0)  -->
<svg version="1.1" id="Layer_1" xmlns="http://www.w3.org/2000/svg" xmlns:xlink="http://www.w3.org/1999/xlink" x="0px" y="0px"
	 viewBox="-717 965 101 119" enable-background="new -717 965 101 119" xml:space="preserve">
<g id="Foreground">
	<g>
		<path fill="#FFFFFF" d="M-658.21,1016.22c-4.87,0-8.83-3.68-8.83-8.24v-32.89h6.5v33.06c0,1.21,1.03,2.3,2.33,2.3
			c1.3,0,2.33-1.09,2.33-2.3v-33.06h6.5v32.89C-649.38,1012.54-653.35,1016.22-658.21,1016.22z M-677.62,1010.49
			c1.3,0,2.33-1.09,2.33-2.29c0-0.27-0.01-1.5-0.01-3.05c0-1.44-0.42-2.7-0.94-3.36l-8.03-9.77c-1.64-2.07-2.17-4.74-2.17-6.9
			c0-1.54-0.01-2.6-0.01-2.87c0-4.54,3.97-8.2,8.83-8.2c4.87,0,8.83,3.66,8.83,8.2v4.77h-6.5v-4.94c0-1.2-1.03-2.29-2.33-2.29
			c-1.3,0-2.33,1.09-2.33,2.29c0,0.27,0.01,1.5,0.01,3.05c0,1.44,0.42,2.7,0.94,3.36l8,9.72c1.67,2.07,2.22,4.78,2.22,6.96
			c0,1.54,0.01,2.6,0.01,2.87c0,4.54-3.97,8.2-8.83,8.2c-4.87,0-8.83-3.66-8.83-8.2v-5.21h6.5v5.38
			C-679.95,1009.4-678.9,1010.49-677.62,1010.49z M-699.34,1008.15c0,1.21,1.03,2.3,2.33,2.3c1.3,0,2.33-1.09,2.33-2.3v-26.12
			c0-1.21-1.03-2.3-2.33-2.3c-1.3,0-2.33,1.09-2.33,2.3V1008.15z M-688.17,1007.98c0,4.57-3.97,8.24-8.83,8.24
			c-4.87,0-8.83-3.68-8.83-8.24V982.2c0-4.57,3.97-8.24,8.83-8.24c4.87,0,8.83,3.68,8.83,8.24V1007.98z"/>
		<path fill="#FFFFFF" d="M-691.42,1027.5c-0.7,0.3-1.36,0.44-1.99,0.45c-0.8,0-1.41-0.22-1.83-0.67c-0.42-0.44-0.63-1.08-0.63-1.92
			v-1.49c0-0.83,0.2-1.47,0.58-1.89c0.38-0.43,0.94-0.64,1.66-0.65c0.68,0.01,1.21,0.21,1.59,0.61c0.38,0.4,0.58,0.95,0.58,1.67
			v1.36h-2.89v0.55c0,0.36,0.11,0.64,0.32,0.84s0.52,0.3,0.91,0.31c0.42,0,0.92-0.14,1.5-0.42L-691.42,1027.5z M-694.36,1024.03
			h1.52v-0.55c0-0.7-0.25-1.06-0.76-1.06c-0.23,0-0.41,0.08-0.55,0.26c-0.14,0.17-0.21,0.42-0.21,0.76V1024.03z M-664.36,1025.23
			c-0.01,0.47,0.05,0.82,0.18,1.02s0.39,0.3,0.78,0.3l0.22-0.01v1.39c-0.25,0.02-0.47,0.03-0.68,0.02
			c-0.79,0.01-1.35-0.15-1.67-0.49c-0.32-0.33-0.47-0.88-0.46-1.64v-3.11h-0.92v-1.19h0.92v-2.26h1.63v2.26h1.14v1.19h-1.14V1025.23
			z M-690.81,1029.26l1.01-0.62c0.07,0.12,0.19,0.24,0.35,0.38c0.16,0.13,0.37,0.2,0.64,0.21c0.15,0,0.32-0.03,0.51-0.12
			c0.19-0.07,0.34-0.22,0.44-0.43c0.07-0.18,0.11-0.43,0.09-0.74v-0.63c-0.4,0.47-0.87,0.67-1.37,0.67c-0.63,0-1.07-0.26-1.32-0.79
			c-0.25-0.53-0.37-1.34-0.36-2.41c-0.01-0.59,0.01-1.1,0.05-1.53c0.04-0.43,0.14-0.8,0.3-1.09c0.14-0.24,0.33-0.44,0.56-0.57
			c0.24-0.14,0.52-0.2,0.83-0.21c0.31,0,0.65,0.13,0.81,0.21c0.12,0.06,0.36,0.21,0.49,0.43v-0.49h1.58v5.62
			c0.01,0.32-0.01,0.65-0.04,1.01c-0.03,0.36-0.07,0.71-0.22,1.02c-0.16,0.33-0.41,0.59-0.77,0.8c-0.36,0.21-0.85,0.32-1.49,0.32
			c-0.46-0.01-0.84-0.06-1.14-0.18c-0.3-0.12-0.52-0.25-0.68-0.41C-690.65,1029.53-690.76,1029.39-690.81,1029.26z M-687.75,1025.81
			v-2.35c-0.02-0.22-0.06-0.4-0.12-0.54c-0.1-0.25-0.3-0.37-0.59-0.37c-0.32,0-0.52,0.16-0.59,0.5c-0.07,0.33-0.11,0.84-0.08,1.54
			v0.14c-0.01,0.65,0.03,1.15,0.12,1.49c0.08,0.34,0.29,0.5,0.59,0.51C-688.04,1026.72-687.81,1026.42-687.75,1025.81z
			 M-680.05,1027.82v-6.29h1.5v1.16c0.21-0.35,0.45-0.65,0.74-0.9c0.3-0.25,0.64-0.38,1.04-0.39c0.51,0.01,0.87,0.14,1.09,0.37
			c0.22,0.23,0.35,0.49,0.4,0.77c0.05,0.28,0.06,0.51,0.05,0.69v4.61h-1.63v-4.13c0-0.08,0-0.2-0.02-0.33
			c-0.01-0.14-0.06-0.25-0.14-0.36c-0.07-0.11-0.2-0.16-0.38-0.17c-0.22,0.01-0.42,0.07-0.58,0.2c-0.16,0.13-0.32,0.27-0.46,0.45
			v4.31H-680.05z M-685.39,1024.51c-0.01-0.31,0.01-0.63,0.03-0.99c0.03-0.36,0.12-0.71,0.24-1.03c0.14-0.33,0.36-0.6,0.67-0.81
			c0.31-0.21,0.74-0.32,1.3-0.33c0.22,0,0.45,0.01,0.7,0.05c0.24,0.04,0.47,0.13,0.71,0.26c0.23,0.14,0.43,0.36,0.61,0.65
			c0.14,0.25,0.24,0.57,0.29,0.94c0.05,0.38,0.07,0.84,0.07,1.4c0.01,0.63-0.02,1.16-0.08,1.58c-0.07,0.41-0.25,0.78-0.54,1.09
			c-0.08,0.12-0.25,0.23-0.49,0.37c-0.23,0.14-0.61,0.21-1.12,0.22c-0.19,0-0.41-0.01-0.66-0.04c-0.25-0.03-0.49-0.11-0.69-0.21
			c-0.33-0.2-0.56-0.44-0.71-0.74c-0.15-0.3-0.24-0.64-0.28-1.04C-685.38,1025.47-685.41,1025.02-685.39,1024.51z M-683.86,1025.2
			c0,0.31,0.01,0.54,0.03,0.74c0.01,0.08,0.02,0.17,0.04,0.23l0.04,0.13c0.07,0.19,0.18,0.32,0.32,0.36l0.16,0.05
			c0.07,0.02,0.13,0.02,0.18,0.02c0.12,0,0.18-0.01,0.24-0.02c0.14-0.03,0.24-0.08,0.32-0.18c0.04-0.05,0.07-0.12,0.11-0.2
			c0.05-0.13,0.1-0.28,0.11-0.45c0.02-0.24,0.03-0.5,0.02-0.76v-0.57c0-0.14,0-0.27,0-0.4c0-0.31-0.01-0.59-0.03-0.83
			c-0.03-0.24-0.09-0.43-0.21-0.58c-0.12-0.14-0.31-0.21-0.57-0.21c-0.25,0.01-0.42,0.08-0.53,0.25c-0.11,0.16-0.17,0.36-0.19,0.61
			c-0.01,0.14-0.02,0.27-0.02,0.42c0,0.07,0,0.14,0,0.21v1.18H-683.86L-683.86,1025.2z M-699.29,1027.82v-6.29h1.4l0.11,0.8
			c0.23-0.63,0.72-0.95,1.47-0.97h0.11v1.53h-0.16c-0.48,0-0.82,0.12-1.02,0.37c-0.2,0.24-0.3,0.63-0.3,1.17v3.4h-1.6
			L-699.29,1027.82L-699.29,1027.82z M-654.98,1025.23c-0.01,0.47,0.05,0.82,0.18,1.02s0.39,0.3,0.78,0.3l0.22-0.01v1.39
			c-0.25,0.02-0.47,0.03-0.68,0.02c-0.79,0.01-1.35-0.15-1.67-0.49c-0.32-0.33-0.47-0.88-0.46-1.64v-3.11h-0.92v-1.19h0.92v-2.26
			h1.63v2.26h1.14v1.19h-1.14V1025.23z M-649,1027.5c-0.7,0.3-1.36,0.44-1.99,0.45c-0.8,0-1.41-0.22-1.83-0.67
			c-0.42-0.44-0.63-1.08-0.63-1.92v-1.49c0-0.83,0.2-1.47,0.58-1.89c0.38-0.43,0.94-0.64,1.66-0.65c0.68,0.01,1.21,0.21,1.59,0.61
			c0.38,0.4,0.58,0.95,0.58,1.67v1.36h-2.89v0.55c0,0.36,0.11,0.64,0.32,0.84c0.21,0.2,0.52,0.3,0.91,0.31
			c0.42,0,0.92-0.14,1.5-0.42L-649,1027.5z M-651.92,1024.03h1.52v-0.55c0-0.7-0.25-1.06-0.76-1.06c-0.23,0-0.41,0.08-0.55,0.26
			c-0.14,0.17-0.21,0.42-0.21,0.76V1024.03z M-659.33,1027.07c-0.29,0.28-0.57,0.5-0.84,0.63c-0.29,0.14-0.58,0.21-0.9,0.21
			c-0.49-0.01-0.87-0.17-1.15-0.48c-0.28-0.32-0.42-0.73-0.43-1.26c0-1.41,1.03-2.26,3.09-2.54v-0.5c0-0.19-0.07-0.34-0.22-0.45
			c-0.14-0.12-0.35-0.18-0.6-0.18c-0.45,0.01-0.94,0.22-1.45,0.64l-0.76-0.98c0.64-0.55,1.41-0.82,2.3-0.81
			c1.56,0.01,2.34,0.73,2.35,2.16v2.71c0,0.21,0.11,0.34,0.3,0.39v1.2c-0.09,0.01-0.19,0.01-0.27,0.01
			C-658.57,1027.84-659.05,1027.59-659.33,1027.07z M-659.57,1024.59c-0.5,0.07-0.88,0.22-1.14,0.45c-0.26,0.23-0.4,0.51-0.4,0.83
			c0,0.23,0.07,0.42,0.19,0.56c0.13,0.14,0.28,0.21,0.47,0.21c0.26,0,0.47-0.12,0.63-0.34s0.23-0.55,0.23-0.99v-0.73H-659.57z
			 M-683.82,1030.16v2.07c0,0.24,0.02,0.41,0.08,0.52c0.05,0.11,0.18,0.16,0.35,0.16c0.18,0,0.3-0.05,0.35-0.16
			c0.05-0.11,0.08-0.29,0.07-0.52v-2.07h0.7v2.24c0,0.39-0.09,0.68-0.27,0.87c-0.19,0.19-0.46,0.28-0.85,0.28
			c-0.76,0-1.13-0.38-1.13-1.15v-2.24H-683.82z M-680.42,1033.47v-3.31h0.68l1,2.01l-0.01-2.01h0.6v3.3h-0.57l-1.11-2.24l0.01,2.24
			h-0.6V1033.47z M-676.25,1033.47v-0.32l0,0v-2.7l0,0v-0.3h0.7v0.28l0,0v2.7l0,0v0.32h-0.7V1033.47z M-665.41,1030.72v0.87h0.19
			c0.21,0,0.37-0.02,0.46-0.07c0.1-0.05,0.15-0.18,0.15-0.36s-0.05-0.3-0.15-0.36c-0.09-0.05-0.25-0.08-0.46-0.07H-665.41z
			 M-666.11,1030.16h0.79c0.21,0,0.39,0.01,0.56,0.02c0.16,0.02,0.3,0.05,0.41,0.12c0.14,0.08,0.25,0.19,0.33,0.34
			c0.07,0.14,0.12,0.31,0.12,0.51c0,0.22-0.05,0.41-0.15,0.56c-0.09,0.15-0.24,0.26-0.43,0.34l0.69,1.44h-0.77l-0.61-1.35h-0.23
			v1.35h-0.7V1030.16L-666.11,1030.16z M-672.26,1033.47H-673l-0.96-3.3h0.7l0.63,2.31l0.63-2.31h0.7L-672.26,1033.47z
			 M-669.79,1033.47v-3.31h2.12v0.63h-1.42v0.59h0.97v0.63h-0.97v0.8h1.51v0.63h-2.21V1033.47L-669.79,1033.47z M-662.42,1032.88
			l0.54-0.4c0.08,0.16,0.18,0.27,0.27,0.35c0.09,0.07,0.21,0.12,0.34,0.12c0.13,0,0.22-0.03,0.28-0.09
			c0.07-0.06,0.11-0.15,0.11-0.25c0-0.18-0.12-0.32-0.35-0.42l-0.43-0.19c-0.13-0.06-0.24-0.13-0.35-0.21
			c-0.22-0.18-0.33-0.43-0.33-0.74c0-0.3,0.1-0.53,0.27-0.7c0.18-0.17,0.43-0.25,0.75-0.26c0.45,0,0.8,0.2,1.02,0.58l-0.5,0.38
			c-0.17-0.25-0.36-0.37-0.57-0.37c-0.11,0-0.19,0.03-0.25,0.08c-0.06,0.05-0.09,0.13-0.09,0.22c0,0.08,0.03,0.16,0.09,0.22
			s0.16,0.13,0.28,0.19l0.44,0.19c0.14,0.06,0.25,0.13,0.35,0.2c0.21,0.18,0.33,0.43,0.33,0.76c0,0.31-0.11,0.55-0.3,0.74
			c-0.19,0.18-0.45,0.27-0.79,0.29C-661.77,1033.56-662.15,1033.32-662.42,1032.88z M-658.52,1033.47v-0.32l0,0v-2.7l0,0v-0.3h0.7
			v0.28l0,0v2.7l0,0v0.32h-0.7V1033.47z M-655.13,1033.47v-2.67h-0.79v-0.63h2.29v0.63h-0.79v2.67H-655.13z M-651.48,1033.47v-1.32
			l-0.96-1.98h0.74l0.57,1.23l0.57-1.23h0.74l-0.96,1.98v1.32H-651.48z M-668.55,1021.18c-0.14-0.26-0.33-0.49-0.57-0.66
			c-0.26-0.2-0.56-0.3-0.91-0.31c-0.32,0.01-0.56,0.07-0.72,0.21c-0.15,0.13-0.24,0.26-0.27,0.41c-0.03,0.14-0.05,0.23-0.04,0.28
			c0.01,0.32,0.13,0.57,0.36,0.74c0.22,0.16,0.46,0.28,0.74,0.38l1.07,0.41c0.25,0.09,0.52,0.23,0.77,0.4
			c0.25,0.17,0.47,0.38,0.64,0.62c0.06,0.07,0.15,0.24,0.26,0.51c0.12,0.26,0.18,0.6,0.19,1.02c0.01,0.14-0.01,0.34-0.04,0.61
			c-0.03,0.26-0.14,0.55-0.31,0.85c-0.17,0.31-0.44,0.58-0.82,0.84c-0.25,0.16-0.53,0.26-0.82,0.34c-0.3,0.07-0.56,0.11-0.77,0.11
			c-0.73,0.01-1.33-0.11-1.8-0.36c-0.46-0.24-0.89-0.71-1.25-1.38l1.35-0.95c0.16,0.36,0.37,0.64,0.63,0.85
			c0.28,0.22,0.61,0.33,0.98,0.34c0.15,0,0.31-0.02,0.49-0.08c0.18-0.06,0.34-0.17,0.47-0.32c0.14-0.16,0.21-0.38,0.21-0.65
			c0-0.22-0.04-0.41-0.15-0.55c-0.11-0.15-0.27-0.27-0.51-0.39s-0.56-0.26-0.98-0.43c-0.43-0.17-0.82-0.36-1.17-0.58
			c-0.35-0.22-0.63-0.51-0.84-0.85c-0.21-0.35-0.32-0.81-0.33-1.38c0.01-0.74,0.24-1.32,0.71-1.77c0.46-0.44,1.13-0.69,1.99-0.7
			c0.61,0,1.14,0.13,1.58,0.39c0.43,0.25,0.82,0.63,1.15,1.14L-668.55,1021.18z M-706,1024.37v-2.39c-0.01-0.45,0.04-0.9,0.15-1.31
			c0.11-0.42,0.3-0.8,0.59-1.14c0.27-0.31,0.59-0.53,0.96-0.65s0.75-0.19,1.16-0.19c0.43,0,0.84,0.06,1.22,0.19s0.71,0.35,0.99,0.66
			c0.23,0.25,0.42,0.6,0.55,1.03c0.13,0.43,0.19,1,0.19,1.71v2.15c0,0.62-0.05,1.14-0.17,1.56c-0.12,0.42-0.3,0.79-0.56,1.09
			c-0.24,0.26-0.5,0.45-0.77,0.58c-0.27,0.13-0.55,0.21-0.81,0.24c-0.26,0.04-0.49,0.05-0.66,0.05c-0.28,0.01-0.6-0.04-0.95-0.14
			s-0.68-0.27-0.98-0.54s-0.53-0.64-0.69-1.14c-0.08-0.33-0.15-0.65-0.18-0.98C-705.99,1024.85-706,1024.57-706,1024.37z
			 M-704.11,1021.68v3.08c-0.01,0.48,0.05,0.85,0.19,1.15c0.14,0.3,0.41,0.44,0.81,0.45c0.33-0.01,0.56-0.11,0.71-0.27
			c0.14-0.18,0.23-0.39,0.26-0.63s0.04-0.47,0.03-0.69v-3.08c0.01-0.21-0.01-0.42-0.03-0.63c-0.03-0.21-0.12-0.38-0.25-0.52
			c-0.14-0.14-0.37-0.21-0.69-0.22c-0.34,0.01-0.57,0.11-0.72,0.27s-0.23,0.37-0.26,0.58
			C-704.11,1021.39-704.12,1021.55-704.11,1021.68z"/>
		<path fill="#FFFFFF" d="M-676.88,1038.63c-4.59,0-13.24-0.31-13.24-0.31c-0.16-0.01-0.16-0.16,0-0.16c0,0,8.56-0.31,13.24-0.31
			c4.68,0,12.29,0.31,12.29,0.31c0.16,0.01,0.16,0.16,0,0.16C-664.6,1038.33-672.3,1038.63-676.88,1038.63z"/>
		<g>
			<path fill="#FFFFFF" d="M-689.15,1043.53h1.02v4.43h1.48v0.95h-2.5V1043.53z"/>
			<path fill="#FFFFFF" d="M-685.23,1044.42h-0.95v-0.89h0.95V1044.42z M-685.23,1048.9h-0.95v-3.75h0.95V1048.9z"/>
			<path fill="#FFFFFF" d="M-683.57,1043.53v1.93c0.19-0.27,0.44-0.4,0.76-0.4c0.74,0,0.97,0.62,0.97,1.9c0,0.7-0.02,1.21-0.2,1.56
				c-0.15,0.3-0.43,0.46-0.78,0.46c-0.34,0-0.61-0.17-0.75-0.44l-0.03,0.36h-0.93c0.02-0.34,0.03-0.61,0.03-0.83v-4.54
				C-684.5,1043.53-683.57,1043.53-683.57,1043.53z M-683.57,1047.4c0,0.65,0.06,0.96,0.41,0.96c0.38,0,0.38-0.4,0.38-1.29
				c0-0.03,0-0.06,0-0.08c0-0.83-0.04-1.26-0.4-1.26c-0.26,0-0.4,0.29-0.4,0.85v0.81H-683.57z"/>
			<path fill="#FFFFFF" d="M-681.15,1045.16h0.82l0.06,0.5c0.12-0.37,0.41-0.57,0.82-0.57c0.02,0,0.04,0,0.06,0v0.91
				c-0.03,0-0.06,0-0.08,0c-0.55,0-0.74,0.27-0.74,0.91v2.02h-0.95V1045.16z"/>
			<path fill="#FFFFFF" d="M-678.86,1046.06c0-0.64,0.45-0.99,1.32-0.99c0.85,0,1.25,0.34,1.25,1.09v1.87
				c0,0.32,0.02,0.61,0.06,0.88h-0.84l-0.07-0.42c-0.17,0.26-0.53,0.45-0.91,0.45c-0.56,0-0.91-0.44-0.91-1.17
				c0-0.85,0.47-1.22,1.5-1.27l0.3-0.01v-0.18c0-0.49-0.08-0.7-0.38-0.7s-0.45,0.18-0.45,0.53h-0.88
				C-678.86,1046.12-678.86,1046.09-678.86,1046.06z M-678.06,1047.73c0,0.37,0.14,0.58,0.36,0.58c0.33,0,0.53-0.32,0.53-0.94v-0.33
				C-677.81,1047.04-678.06,1047.19-678.06,1047.73z"/>
			<path fill="#FFFFFF" d="M-675.51,1045.16h0.82l0.06,0.5c0.12-0.37,0.41-0.57,0.82-0.57c0.02,0,0.04,0,0.06,0v0.91
				c-0.03,0-0.06,0-0.08,0c-0.55,0-0.74,0.27-0.74,0.91v2.02h-0.95V1045.16z"/>
			<path fill="#FFFFFF" d="M-672.3,1044.42h-0.95v-0.89h0.95V1044.42z M-672.3,1048.9h-0.95v-3.75h0.95V1048.9z"/>
			<path fill="#FFFFFF" d="M-668.88,1047.52c0,0.98-0.45,1.47-1.37,1.47c-1.12,0-1.39-0.58-1.39-2.04c0-1.31,0.37-1.88,1.39-1.88
				c0.93,0,1.37,0.5,1.37,1.51v0.57h-1.8v0.39c0,0.55,0.12,0.8,0.42,0.8c0.29,0,0.43-0.25,0.43-0.75c0-0.02,0-0.04,0-0.06h0.95
				L-668.88,1047.52L-668.88,1047.52z M-669.83,1046.56v-0.32c0-0.36-0.16-0.56-0.41-0.56c-0.28,0-0.43,0.24-0.43,0.75
				c0,0.04,0,0.08,0,0.13H-669.83z"/>
			<path fill="#FFFFFF" d="M-667.43,1047.67c0,0.03,0,0.05,0,0.07c0,0.39,0.14,0.6,0.34,0.6c0.26,0,0.42-0.16,0.42-0.39
				c0-0.35-0.33-0.47-0.85-0.8c-0.53-0.32-0.82-0.5-0.82-1.06c0-0.62,0.47-1.06,1.22-1.06c0.81,0,1.23,0.35,1.23,1.01
				c0,0.04-0.01,0.07-0.01,0.12h-0.89c0.01-0.04,0.01-0.08,0.01-0.12c0-0.3-0.12-0.44-0.34-0.44c-0.2,0-0.34,0.14-0.34,0.33
				c0,0.32,0.4,0.44,0.99,0.83c0.47,0.32,0.71,0.57,0.71,1.06c0,0.73-0.49,1.11-1.45,1.11c-0.74,0-1.15-0.41-1.15-1.14
				c0-0.04,0-0.09,0.01-0.15h0.91V1047.67z"/>
		</g>
	</g>
	<g display="none">
		<path display="inline" fill="#FFFFFF" d="M-204,1084.37c-9.23,0-16.75-6.98-16.75-15.64v-62.37h12.33v62.69
			c0,2.3,1.96,4.37,4.43,4.37c2.46,0,4.43-2.07,4.43-4.37v-62.69h12.33v62.37C-187.25,1077.39-194.77,1084.37-204,1084.37z
			 M-240.79,1073.49c2.46,0,4.43-2.06,4.43-4.35c0-0.52-0.01-2.85-0.01-5.78c0-2.71-0.79-5.13-1.79-6.36l-15.24-18.54
			c-3.11-3.92-4.12-9-4.12-13.09c0-2.93-0.01-4.93-0.01-5.45c0-8.61,7.52-15.56,16.75-15.56s16.75,6.95,16.75,15.56v9.04h-12.33
			v-9.36c0-2.29-1.97-4.35-4.43-4.35s-4.43,2.06-4.43,4.35c0,0.52,0.01,2.85,0.01,5.78c0,2.71,0.79,5.13,1.79,6.36l15.17,18.44
			c3.16,3.93,4.2,9.06,4.2,13.18c0,2.93,0.01,4.93,0.01,5.45c0,8.61-7.52,15.56-16.75,15.56s-16.75-6.95-16.75-15.56v-9.87h12.33
			v10.2C-245.21,1071.43-243.25,1073.49-240.79,1073.49z M-282,1069.06c0,2.3,1.96,4.37,4.43,4.37c2.46,0,4.43-2.07,4.43-4.37
			v-49.54c0-2.3-1.96-4.37-4.43-4.37c-2.46,0-4.43,2.07-4.43,4.37V1069.06z M-260.82,1068.73c0,8.66-7.52,15.64-16.75,15.64
			c-9.23,0-16.75-6.98-16.75-15.64v-48.88c0-8.66,7.52-15.64,16.75-15.64c9.23,0,16.75,6.98,16.75,15.64V1068.73z"/>
		<path display="inline" fill="#FFFFFF" d="M-266.98,1105.75c-1.33,0.56-2.59,0.85-3.78,0.85c-1.52-0.01-2.67-0.43-3.47-1.26
			c-0.79-0.83-1.19-2.04-1.2-3.63v-2.83c0.01-1.58,0.37-2.77,1.1-3.59c0.73-0.82,1.77-1.23,3.15-1.23c1.29,0.01,2.3,0.4,3.03,1.15
			c0.73,0.76,1.1,1.81,1.11,3.16v2.58h-5.49v1.03c0,0.69,0.21,1.22,0.61,1.6s0.98,0.57,1.72,0.58c0.79,0,1.74-0.27,2.84-0.81
			L-266.98,1105.75z M-272.54,1099.18h2.89v-1.03c0-1.33-0.48-1.99-1.44-2c-0.44,0-0.79,0.17-1.05,0.49
			c-0.26,0.33-0.39,0.81-0.4,1.44V1099.18z M-215.65,1101.44c-0.02,0.91,0.1,1.55,0.34,1.94c0.25,0.38,0.74,0.57,1.48,0.56
			l0.42-0.02v2.65c-0.47,0.04-0.9,0.05-1.29,0.04c-1.5,0.02-2.56-0.29-3.16-0.91c-0.61-0.62-0.9-1.66-0.88-3.1v-5.9h-1.73v-2.27
			h1.73v-4.29h3.09v4.29h2.16v2.27h-2.16V1101.44L-215.65,1101.44z M-265.81,1109.08l1.92-1.19c0.15,0.23,0.37,0.46,0.66,0.71
			s0.7,0.38,1.22,0.41c0.28,0.01,0.6-0.06,0.97-0.21c0.37-0.15,0.65-0.42,0.85-0.81c0.14-0.35,0.2-0.81,0.18-1.39v-1.19
			c-0.77,0.9-1.64,1.26-2.61,1.26c-1.19,0-2.02-0.5-2.5-1.51c-0.47-1.01-0.7-2.53-0.68-4.57c-0.01-1.12,0.02-2.09,0.1-2.91
			c0.08-0.82,0.26-1.51,0.56-2.07c0.26-0.47,0.61-0.83,1.07-1.09c0.46-0.26,0.99-0.39,1.58-0.39c0.58,0,1.23,0.23,1.55,0.39
			c0.23,0.12,0.69,0.4,0.93,0.82v-0.93h3.01v10.65c0.01,0.59-0.01,1.23-0.08,1.91s-0.13,1.33-0.43,1.95
			c-0.29,0.62-0.78,1.12-1.45,1.52c-0.67,0.39-1.61,0.6-2.82,0.61c-0.88-0.01-1.6-0.13-2.16-0.34c-0.56-0.22-0.99-0.48-1.28-0.78
			C-265.53,1109.61-265.72,1109.34-265.81,1109.08z M-260.01,1102.54v-4.46c-0.04-0.42-0.11-0.76-0.22-1.02
			c-0.19-0.47-0.56-0.71-1.12-0.7c-0.61,0-0.98,0.31-1.12,0.94c-0.14,0.63-0.2,1.6-0.17,2.92v0.27c-0.02,1.25,0.05,2.19,0.22,2.82
			c0.16,0.63,0.54,0.95,1.12,0.95C-260.57,1104.26-260.14,1103.7-260.01,1102.54z M-245.42,1106.37v-11.94h2.84v2.21
			c0.4-0.66,0.85-1.23,1.41-1.71c0.55-0.48,1.21-0.72,1.98-0.75c0.96,0.03,1.64,0.26,2.06,0.69c0.42,0.44,0.67,0.92,0.76,1.46
			c0.09,0.54,0.13,0.97,0.11,1.29v8.74h-3.08v-7.79c0.01-0.17,0-0.38-0.03-0.63s-0.11-0.48-0.26-0.68c-0.14-0.2-0.38-0.3-0.72-0.32
			c-0.43,0.01-0.79,0.14-1.1,0.37c-0.31,0.24-0.6,0.53-0.89,0.86v8.18h-3.08L-245.42,1106.37L-245.42,1106.37z M-255.56,1100.07
			c-0.01-0.58,0.01-1.21,0.07-1.89c0.06-0.68,0.21-1.34,0.47-1.96s0.68-1.14,1.26-1.54c0.59-0.4,1.41-0.61,2.46-0.62
			c0.42-0.01,0.86,0.02,1.32,0.09c0.46,0.07,0.91,0.24,1.34,0.5s0.82,0.67,1.15,1.23c0.27,0.48,0.45,1.07,0.55,1.79
			c0.1,0.72,0.15,1.61,0.14,2.67c0.02,1.21-0.03,2.21-0.17,3c-0.13,0.79-0.48,1.48-1.03,2.07c-0.17,0.21-0.48,0.45-0.92,0.71
			c-0.45,0.26-1.15,0.4-2.12,0.42c-0.36,0.01-0.78-0.02-1.26-0.08c-0.49-0.06-0.92-0.19-1.29-0.4c-0.61-0.37-1.06-0.84-1.34-1.41
			c-0.28-0.56-0.46-1.23-0.53-1.99C-255.53,1101.91-255.57,1101.04-255.56,1100.07z M-252.65,1101.39c0,0.58,0.02,1.01,0.07,1.41
			c0.02,0.16,0.05,0.31,0.09,0.45l0.08,0.23c0.14,0.37,0.34,0.59,0.6,0.69l0.3,0.09c0.14,0.04,0.25,0.05,0.33,0.04
			c0.23,0,0.35-0.02,0.46-0.04c0.26-0.06,0.46-0.17,0.59-0.34c0.08-0.1,0.15-0.22,0.2-0.37c0.11-0.25,0.18-0.54,0.2-0.87
			c0.04-0.47,0.05-0.95,0.04-1.45v-1.08c0-0.27,0.01-0.52,0-0.77c0.01-0.59-0.01-1.11-0.06-1.58c-0.05-0.46-0.19-0.83-0.41-1.09
			c-0.22-0.27-0.58-0.4-1.08-0.41c-0.47,0.01-0.81,0.17-1.01,0.47c-0.2,0.3-0.32,0.69-0.36,1.16c-0.02,0.26-0.04,0.53-0.04,0.8
			c-0.01,0.13,0,0.27,0,0.39L-252.65,1101.39L-252.65,1101.39z M-281.9,1106.37v-11.94h2.66l0.2,1.52c0.43-1.2,1.36-1.81,2.79-1.84
			h0.2v2.91h-0.29c-0.91-0.01-1.55,0.23-1.93,0.69c-0.38,0.47-0.57,1.21-0.56,2.21v6.44L-281.9,1106.37L-281.9,1106.37z
			 M-197.89,1101.44c-0.02,0.91,0.1,1.55,0.34,1.94c0.25,0.38,0.74,0.57,1.48,0.56l0.42-0.02v2.65c-0.47,0.04-0.9,0.05-1.29,0.04
			c-1.5,0.02-2.55-0.29-3.16-0.91c-0.61-0.62-0.9-1.66-0.88-3.1v-5.9h-1.73v-2.27h1.73v-4.29h3.09v4.29h2.16v2.27h-2.16V1101.44
			L-197.89,1101.44z M-186.53,1105.75c-1.33,0.56-2.59,0.85-3.78,0.85c-1.52-0.01-2.67-0.43-3.47-1.26
			c-0.79-0.83-1.19-2.04-1.2-3.63v-2.83c0.01-1.58,0.37-2.77,1.1-3.59c0.73-0.82,1.77-1.23,3.15-1.23c1.29,0.01,2.3,0.4,3.03,1.15
			c0.73,0.76,1.1,1.81,1.11,3.16v2.58h-5.49v1.03c0,0.69,0.21,1.22,0.61,1.6s0.98,0.57,1.72,0.58c0.79,0,1.74-0.27,2.84-0.81
			L-186.53,1105.75z M-192.08,1099.18h2.89v-1.03c0-1.33-0.49-1.99-1.44-2c-0.44,0-0.79,0.17-1.05,0.49
			c-0.26,0.33-0.39,0.81-0.4,1.44L-192.08,1099.18L-192.08,1099.18z M-206.13,1104.95c-0.54,0.54-1.07,0.94-1.61,1.2
			c-0.53,0.26-1.1,0.39-1.71,0.39c-0.92-0.01-1.65-0.32-2.18-0.91s-0.8-1.39-0.82-2.39c0-2.67,1.96-4.28,5.87-4.83v-0.94
			c0-0.36-0.14-0.64-0.41-0.87c-0.27-0.22-0.65-0.34-1.14-0.35c-0.87,0.01-1.78,0.42-2.73,1.21l-1.44-1.86
			c1.23-1.04,2.68-1.56,4.36-1.55c2.96,0.01,4.44,1.38,4.47,4.11v5.14c0.01,0.39,0.19,0.64,0.56,0.74v2.33
			c-0.18,0.02-0.35,0.03-0.51,0.02C-204.7,1106.41-205.59,1105.93-206.13,1104.95z M-206.58,1100.23c-0.94,0.14-1.66,0.43-2.16,0.87
			c-0.5,0.44-0.75,0.97-0.76,1.58c0.01,0.44,0.13,0.8,0.37,1.06s0.54,0.4,0.9,0.4c0.51,0,0.91-0.21,1.2-0.63
			c0.29-0.42,0.44-1.05,0.45-1.88V1100.23L-206.58,1100.23z M-252.57,1110.79v3.92c-0.01,0.45,0.04,0.78,0.15,0.99
			c0.11,0.21,0.33,0.31,0.66,0.31c0.34,0,0.56-0.1,0.67-0.31c0.11-0.21,0.16-0.54,0.15-0.99v-3.92h1.32v4.24
			c0,0.74-0.17,1.29-0.52,1.65c-0.35,0.36-0.89,0.54-1.61,0.54c-1.43,0-2.15-0.73-2.14-2.19v-4.24H-252.57L-252.57,1110.79z
			 M-246.13,1117.07v-6.27h1.27l1.91,3.81l-0.02-3.81h1.15v6.27h-1.08l-2.1-4.24l0.02,4.24H-246.13z M-238.21,1117.07v-0.59l0,0
			v-5.13l0,0v-0.55h1.32v0.55l0,0v5.13l0,0v0.59H-238.21z M-217.65,1111.85v1.65h0.37c0.4,0.01,0.69-0.04,0.88-0.15
			s0.28-0.33,0.28-0.68c0-0.34-0.09-0.57-0.28-0.68s-0.48-0.16-0.88-0.15L-217.65,1111.85L-217.65,1111.85z M-218.97,1110.79h1.5
			c0.4,0,0.75,0.01,1.05,0.04c0.3,0.03,0.56,0.11,0.78,0.22c0.27,0.15,0.48,0.36,0.62,0.63s0.21,0.59,0.21,0.95
			c0,0.42-0.09,0.78-0.28,1.07c-0.19,0.29-0.46,0.5-0.81,0.63l1.3,2.72h-1.46l-1.16-2.56h-0.44v2.56h-1.32v-6.26H-218.97
			L-218.97,1110.79z M-230.64,1117.07h-1.39l-1.83-6.27h1.32l1.21,4.38l1.2-4.38h1.32L-230.64,1117.07z M-225.97,1117.07v-6.27h4.02
			v1.2h-2.7v1.12h1.84v1.21h-1.84v1.52h2.87v1.21h-4.19V1117.07z M-211.97,1115.96l1.03-0.76c0.17,0.29,0.34,0.51,0.53,0.66
			c0.18,0.14,0.39,0.21,0.63,0.21c0.23,0,0.41-0.07,0.55-0.19c0.13-0.12,0.2-0.28,0.2-0.47c0-0.34-0.22-0.6-0.66-0.8l-0.82-0.35
			c-0.25-0.11-0.47-0.24-0.66-0.39c-0.42-0.35-0.63-0.82-0.63-1.41c0.01-0.56,0.18-1,0.52-1.32c0.34-0.32,0.81-0.49,1.41-0.49
			c0.87,0,1.52,0.37,1.95,1.11l-0.95,0.71c-0.31-0.47-0.67-0.7-1.08-0.7c-0.21,0-0.37,0.06-0.48,0.16c-0.12,0.1-0.18,0.24-0.18,0.41
			c0,0.16,0.06,0.3,0.18,0.42c0.12,0.12,0.3,0.24,0.54,0.35l0.84,0.37c0.25,0.11,0.47,0.24,0.65,0.39c0.41,0.35,0.62,0.83,0.63,1.45
			c-0.01,0.58-0.2,1.04-0.56,1.39c-0.37,0.35-0.86,0.53-1.49,0.54C-210.75,1117.23-211.47,1116.8-211.97,1115.96z M-204.59,1117.07
			v-0.59l0,0v-5.13l0,0v-0.55h1.32v0.55l0,0v5.13l0,0v0.59H-204.59z M-198.17,1117.07V1112h-1.51v-1.21h4.34v1.21h-1.51v5.06h-1.32
			L-198.17,1117.07L-198.17,1117.07z M-191.23,1117.07v-2.51l-1.83-3.77h1.4l1.08,2.34l1.08-2.34h1.39l-1.82,3.77v2.51H-191.23z
			 M-223.6,1093.77c-0.26-0.49-0.62-0.91-1.08-1.26c-0.5-0.37-1.07-0.56-1.72-0.58c-0.61,0.02-1.07,0.15-1.36,0.4
			c-0.28,0.25-0.45,0.51-0.52,0.79c-0.06,0.25-0.1,0.43-0.08,0.53c0.02,0.61,0.25,1.07,0.68,1.39c0.42,0.31,0.88,0.55,1.4,0.72
			l2.02,0.78c0.49,0.18,0.97,0.44,1.47,0.77c0.49,0.33,0.89,0.72,1.22,1.17c0.11,0.13,0.28,0.45,0.51,0.97
			c0.22,0.5,0.34,1.15,0.37,1.94c0.01,0.26-0.01,0.65-0.08,1.15s-0.26,1.04-0.58,1.62c-0.31,0.57-0.83,1.1-1.56,1.59
			c-0.48,0.29-1,0.5-1.56,0.64c-0.56,0.13-1.05,0.2-1.47,0.2c-1.37,0.03-2.52-0.2-3.42-0.68c-0.89-0.47-1.68-1.34-2.36-2.61
			l2.57-1.79c0.3,0.68,0.7,1.22,1.2,1.61c0.53,0.42,1.15,0.63,1.86,0.63c0.28,0.01,0.59-0.05,0.92-0.16c0.34-0.11,0.64-0.31,0.9-0.6
			c0.26-0.3,0.39-0.71,0.41-1.23c0.01-0.42-0.08-0.78-0.27-1.05c-0.19-0.27-0.52-0.52-0.97-0.74c-0.45-0.22-1.07-0.5-1.86-0.82
			c-0.81-0.31-1.56-0.68-2.23-1.1c-0.67-0.42-1.2-0.96-1.6-1.63c-0.4-0.66-0.61-1.54-0.62-2.62c0.01-1.39,0.46-2.51,1.34-3.36
			s2.13-1.29,3.77-1.32c1.16,0,2.16,0.25,3,0.74c0.83,0.48,1.56,1.21,2.19,2.17L-223.6,1093.77z M-294.62,1099.82v-4.52
			c-0.01-0.87,0.08-1.7,0.28-2.49c0.2-0.79,0.57-1.52,1.11-2.16c0.51-0.58,1.12-0.99,1.82-1.24s1.43-0.37,2.19-0.36
			c0.82-0.01,1.59,0.11,2.31,0.36s1.35,0.67,1.89,1.27c0.45,0.49,0.79,1.14,1.03,1.97c0.24,0.82,0.36,1.9,0.36,3.24v4.08
			c0.01,1.17-0.1,2.16-0.31,2.97c-0.21,0.81-0.57,1.49-1.06,2.06c-0.45,0.5-0.94,0.87-1.47,1.11s-1.04,0.4-1.53,0.47
			c-0.49,0.07-0.92,0.11-1.27,0.1c-0.54,0.01-1.14-0.08-1.8-0.26c-0.66-0.18-1.28-0.52-1.85-1.02c-0.58-0.5-1.01-1.22-1.29-2.15
			c-0.17-0.62-0.28-1.24-0.34-1.87C-294.6,1100.71-294.62,1100.2-294.62,1099.82z M-291.05,1094.73v5.85
			c-0.02,0.9,0.1,1.62,0.36,2.18c0.26,0.55,0.77,0.84,1.54,0.85c0.62-0.02,1.06-0.19,1.33-0.52c0.27-0.33,0.43-0.73,0.49-1.2
			c0.06-0.46,0.08-0.9,0.07-1.3v-5.85c0.01-0.4-0.01-0.8-0.07-1.19c-0.06-0.39-0.22-0.72-0.48-0.99c-0.26-0.26-0.7-0.4-1.3-0.41
			c-0.63,0.02-1.09,0.19-1.36,0.52c-0.28,0.33-0.44,0.7-0.5,1.1C-291.03,1094.16-291.06,1094.48-291.05,1094.73z"/>
		<path display="inline" fill="#FFFFFF" d="M-239.4,1126.86c-8.7,0-25.1-0.57-25.1-0.57c-0.3-0.01-0.3-0.29,0-0.31
			c0,0,16.23-0.57,25.1-0.57s23.3,0.57,23.3,0.57c0.3,0.02,0.3,0.29,0,0.31C-216.11,1126.29-230.7,1126.86-239.4,1126.86z"/>
		<g display="inline">
			<path fill="#FFFFFF" d="M-262.67,1136.15h1.94v8.4h2.8v1.8h-4.74V1136.15z"/>
			<path fill="#FFFFFF" d="M-255.23,1137.84h-1.8v-1.69h1.8V1137.84z M-255.23,1146.35h-1.8v-7.11h1.8V1146.35z"/>
			<path fill="#FFFFFF" d="M-252.08,1136.15v3.67c0.37-0.52,0.84-0.76,1.44-0.76c1.4,0,1.83,1.18,1.83,3.61
				c0,1.33-0.04,2.29-0.38,2.96c-0.28,0.55-0.83,0.88-1.49,0.88c-0.65,0-1.16-0.31-1.41-0.85l-0.05,0.68h-1.76
				c0.04-0.64,0.05-1.16,0.05-1.57v-8.61L-252.08,1136.15L-252.08,1136.15z M-252.1,1143.49c0,1.25,0.13,1.83,0.78,1.83
				c0.71,0,0.73-0.76,0.73-2.44c0-0.06,0-0.11,0-0.17c0-1.57-0.08-2.38-0.75-2.38c-0.51,0-0.75,0.54-0.75,1.63L-252.1,1143.49
				L-252.1,1143.49L-252.1,1143.49z"/>
			<path fill="#FFFFFF" d="M-247.51,1139.23h1.57l0.11,0.93c0.23-0.69,0.78-1.09,1.57-1.09c0.04,0,0.08,0,0.11,0v1.73
				c-0.05,0-0.11,0-0.17,0c-1.03,0-1.4,0.52-1.4,1.73v3.82h-1.8L-247.51,1139.23L-247.51,1139.23L-247.51,1139.23z"/>
			<path fill="#FFFFFF" d="M-243.16,1140.95c0-1.22,0.85-1.88,2.51-1.88c1.63,0,2.36,0.64,2.36,2.07v3.54
				c0,0.59,0.04,1.16,0.13,1.67h-1.59l-0.14-0.81c-0.32,0.51-1.01,0.86-1.72,0.86c-1.06,0-1.72-0.85-1.72-2.22
				c0-1.63,0.89-2.32,2.84-2.41l0.56-0.03v-0.33c0-0.92-0.17-1.33-0.71-1.33c-0.56,0-0.85,0.34-0.85,1.01h-1.66
				C-243.16,1141.05-243.16,1141.01-243.16,1140.95z M-241.63,1144.13c0,0.71,0.27,1.1,0.69,1.1c0.62,0,1.01-0.59,1.01-1.78v-0.62
				C-241.16,1142.82-241.63,1143.11-241.63,1144.13z"/>
			<path fill="#FFFFFF" d="M-236.82,1139.23h1.57l0.11,0.93c0.23-0.69,0.78-1.09,1.57-1.09c0.04,0,0.08,0,0.11,0v1.73
				c-0.05,0-0.11,0-0.17,0c-1.03,0-1.4,0.52-1.4,1.73v3.82h-1.8L-236.82,1139.23L-236.82,1139.23L-236.82,1139.23z"/>
			<path fill="#FFFFFF" d="M-230.7,1137.84h-1.8v-1.69h1.8V1137.84z M-230.7,1146.35h-1.8v-7.11h1.8V1146.35z"/>
			<path fill="#FFFFFF" d="M-224.21,1143.72c0,1.85-0.85,2.79-2.6,2.79c-2.12,0-2.65-1.1-2.65-3.87c0-2.48,0.7-3.57,2.65-3.57
				c1.76,0,2.6,0.93,2.6,2.86v1.08h-3.41v0.74c0,1.05,0.23,1.53,0.8,1.53c0.54,0,0.83-0.48,0.83-1.43c0-0.04,0-0.09,0-0.13H-224.21z
				 M-226.02,1141.89v-0.59c0-0.68-0.29-1.06-0.79-1.06c-0.54,0-0.82,0.47-0.82,1.42c0,0.07,0,0.16,0,0.24L-226.02,1141.89
				L-226.02,1141.89z"/>
			<path fill="#FFFFFF" d="M-221.49,1144c0,0.06,0,0.1,0,0.14c0,0.74,0.27,1.15,0.65,1.15c0.5,0,0.8-0.3,0.8-0.74
				c0-0.67-0.61-0.91-1.63-1.52c-0.99-0.59-1.55-0.93-1.55-2c0-1.18,0.9-2,2.32-2c1.54,0,2.34,0.67,2.34,1.93
				c0,0.07-0.01,0.14-0.01,0.23h-1.68c0.01-0.08,0.01-0.16,0.01-0.23c0-0.57-0.22-0.85-0.65-0.85c-0.38,0-0.65,0.25-0.65,0.62
				c0,0.61,0.75,0.85,1.87,1.59c0.9,0.59,1.34,1.08,1.34,2.01c0,1.39-0.92,2.11-2.74,2.11c-1.4,0-2.18-0.78-2.18-2.17
				c0-0.09,0-0.18,0.01-0.28h1.75V1144z"/>
		</g>
	</g>
</g>
</svg>
