<?xml version="1.0" encoding="utf-8"?>
<!-- Generator: Adobe Illustrator 19.0.0, SVG Export Plug-In . SVG Version: 6.00 Build 0)  -->
<svg version="1.1" id="Layer_1" xmlns="http://www.w3.org/2000/svg" xmlns:xlink="http://www.w3.org/1999/xlink" x="0px" y="0px"
	 viewBox="-639 977 256 96" enable-background="new -639 977 256 96" xml:space="preserve">
<g>
	<g enable-background="new    ">
		<path fill="#0A4959" d="M-591.63,1000.52c0,3.13-0.52,6.02-1.56,8.69s-2.51,4.97-4.4,6.92s-4.16,3.47-6.81,4.56
			c-2.66,1.09-5.6,1.64-8.82,1.64c-3.23,0-6.17-0.55-8.83-1.64c-2.67-1.09-4.95-2.61-6.84-4.56c-1.9-1.95-3.37-4.25-4.41-6.92
			s-1.56-5.56-1.56-8.69s0.52-6.02,1.56-8.69c1.04-2.66,2.51-4.97,4.41-6.92c1.9-1.95,4.18-3.47,6.84-4.56
			c2.66-1.09,5.61-1.64,8.83-1.64c3.23,0,6.17,0.55,8.82,1.65c2.65,1.1,4.93,2.62,6.81,4.56c1.89,1.94,3.35,4.24,4.4,6.9
			C-592.15,994.49-591.63,997.39-591.63,1000.52z M-599.77,1000.52c0-2.34-0.31-4.44-0.93-6.3s-1.51-3.44-2.67-4.73
			c-1.16-1.3-2.57-2.29-4.23-2.98s-3.54-1.03-5.62-1.03s-3.96,0.34-5.63,1.03s-3.09,1.68-4.26,2.98s-2.07,2.88-2.7,4.73
			c-0.63,1.86-0.94,3.96-0.94,6.3c0,2.34,0.31,4.44,0.94,6.3s1.53,3.43,2.7,4.72s2.59,2.28,4.26,2.96c1.67,0.69,3.55,1.03,5.63,1.03
			s3.96-0.34,5.62-1.03s3.07-1.68,4.23-2.96c1.16-1.29,2.05-2.86,2.67-4.72S-599.77,1002.85-599.77,1000.52z"/>
		<path fill="#0A4959" d="M-577.17,1005.18v16.67h-7.94v-42.66h13.01c2.91,0,5.4,0.3,7.48,0.9s3.78,1.44,5.1,2.52
			c1.33,1.08,2.3,2.38,2.92,3.88s0.93,3.16,0.93,4.97c0,1.44-0.21,2.79-0.63,4.07s-1.03,2.44-1.83,3.48s-1.78,1.96-2.95,2.74
			c-1.17,0.79-2.5,1.42-4,1.89c1,0.57,1.87,1.39,2.6,2.45l10.68,15.75h-7.14c-0.69,0-1.27-0.14-1.75-0.41
			c-0.48-0.28-0.89-0.67-1.22-1.18l-8.97-13.66c-0.33-0.51-0.7-0.87-1.11-1.09c-0.4-0.22-1-0.33-1.78-0.33L-577.17,1005.18
			L-577.17,1005.18z M-577.17,999.48h4.96c1.49,0,2.8-0.19,3.91-0.56s2.03-0.89,2.74-1.55c0.72-0.66,1.25-1.44,1.61-2.34
			s0.53-1.9,0.53-2.98c0-2.16-0.71-3.83-2.14-4.99s-3.6-1.74-6.53-1.74h-5.07L-577.17,999.48L-577.17,999.48z"/>
		<path fill="#0A4959" d="M-519.82,979.19v6.31h-18.91v11.83h14.9v6.11h-14.9v12.07h18.91v6.34h-26.9v-42.66L-519.82,979.19
			L-519.82,979.19z"/>
		<path fill="#0A4959" d="M-493.36,1016c1.79,0,3.35-0.16,4.68-0.49c1.33-0.32,2.59-0.77,3.79-1.34v-7.76h-5.34
			c-0.51,0-0.91-0.14-1.21-0.43c-0.29-0.28-0.44-0.63-0.44-1.05v-4.48h14.19v17.26c-1.08,0.79-2.21,1.47-3.38,2.05
			s-2.42,1.06-3.75,1.43s-2.75,0.65-4.26,0.84s-3.15,0.28-4.9,0.28c-3.11,0-5.97-0.54-8.58-1.62c-2.62-1.08-4.88-2.59-6.78-4.51
			c-1.91-1.93-3.4-4.23-4.47-6.9c-1.07-2.67-1.61-5.59-1.61-8.76c0-3.21,0.52-6.15,1.56-8.82s2.52-4.97,4.44-6.9
			c1.92-1.93,4.24-3.42,6.98-4.48c2.73-1.06,5.8-1.59,9.2-1.59c3.48,0,6.5,0.52,9.04,1.55s4.71,2.38,6.47,4.03l-2.3,3.6
			c-0.45,0.73-1.05,1.09-1.8,1.09c-0.47,0-0.95-0.16-1.45-0.47c-0.63-0.37-1.27-0.75-1.93-1.12s-1.39-0.7-2.18-0.97
			c-0.8-0.28-1.69-0.5-2.68-0.68s-2.14-0.26-3.44-0.26c-2.1,0-4.01,0.35-5.71,1.06s-3.15,1.72-4.35,3.04s-2.12,2.9-2.77,4.75
			s-0.97,3.91-0.97,6.2c0,2.46,0.34,4.65,1.03,6.56c0.69,1.92,1.65,3.54,2.89,4.85c1.24,1.32,2.71,2.33,4.42,3.02
			C-497.26,1015.65-495.39,1016-493.36,1016z"/>
		<path fill="#0A4959" d="M-429.38,1000.52c0,3.13-0.52,6.02-1.56,8.69s-2.51,4.97-4.4,6.92c-1.89,1.95-4.16,3.47-6.81,4.56
			c-2.66,1.09-5.6,1.64-8.82,1.64s-6.17-0.55-8.83-1.64c-2.67-1.09-4.95-2.61-6.84-4.56c-1.9-1.95-3.37-4.25-4.41-6.92
			s-1.56-5.56-1.56-8.69s0.52-6.02,1.56-8.69c1.04-2.66,2.51-4.97,4.41-6.92s4.18-3.47,6.84-4.56c2.67-1.09,5.61-1.64,8.83-1.64
			s6.17,0.55,8.82,1.65c2.65,1.1,4.93,2.62,6.81,4.56c1.89,1.94,3.35,4.24,4.4,6.9C-429.9,994.49-429.38,997.39-429.38,1000.52z
			 M-437.52,1000.52c0-2.34-0.31-4.44-0.93-6.3s-1.51-3.44-2.67-4.73c-1.16-1.3-2.57-2.29-4.23-2.98s-3.54-1.03-5.62-1.03
			s-3.96,0.34-5.63,1.03s-3.09,1.68-4.26,2.98s-2.07,2.88-2.7,4.73c-0.63,1.86-0.94,3.96-0.94,6.3c0,2.34,0.31,4.44,0.94,6.3
			s1.53,3.43,2.7,4.72s2.59,2.28,4.26,2.96c1.67,0.69,3.55,1.03,5.63,1.03c2.08,0,3.96-0.34,5.62-1.03s3.07-1.68,4.23-2.96
			c1.16-1.29,2.05-2.86,2.67-4.72C-437.83,1004.95-437.52,1002.85-437.52,1000.52z"/>
		<path fill="#0A4959" d="M-418.08,979.23c0.24,0.03,0.45,0.09,0.63,0.18c0.19,0.09,0.37,0.22,0.55,0.38
			c0.18,0.17,0.37,0.39,0.59,0.66l22.39,28.53c-0.08-0.69-0.13-1.36-0.16-2.02c-0.03-0.66-0.04-1.27-0.04-1.84v-25.93h6.99v42.66
			h-4.1c-0.63,0-1.15-0.1-1.56-0.29c-0.41-0.2-0.82-0.55-1.21-1.06l-22.3-28.41c0.06,0.63,0.1,1.25,0.13,1.87s0.04,1.19,0.04,1.7
			v26.2h-6.99V979.2h4.16C-418.61,979.19-418.31,979.2-418.08,979.23z"/>
	</g>
	<g enable-background="new    ">
		<path fill="#0A4959" d="M-596.92,1050.67c0,3.12-0.47,5.92-1.4,8.41c-0.93,2.49-2.24,4.61-3.93,6.36s-3.71,3.09-6.07,4.02
			s-4.97,1.4-7.84,1.4h-14.71v-40.33h14.71c2.87,0,5.48,0.47,7.84,1.4s4.38,2.27,6.07,4.02s3,3.87,3.93,6.36
			C-597.39,1044.78-596.92,1047.57-596.92,1050.67z M-599.94,1050.67c0-2.81-0.39-5.32-1.17-7.52s-1.88-4.07-3.29-5.59
			c-1.42-1.52-3.12-2.68-5.12-3.48c-2-0.8-4.21-1.2-6.64-1.2h-11.77v35.6h11.77c2.43,0,4.65-0.4,6.64-1.2s3.7-1.96,5.12-3.48
			s2.51-3.38,3.29-5.59C-600.33,1056.01-599.94,1053.5-599.94,1050.67z"/>
		<path fill="#0A4959" d="M-578.6,1070.84h-2.94v-40.33h2.94V1070.84z"/>
		<path fill="#0A4959" d="M-543.26,1068.93c1.39,0,2.65-0.07,3.79-0.21s2.2-0.36,3.18-0.64c0.98-0.29,1.91-0.63,2.79-1.04
			s1.77-0.87,2.66-1.38v-10.86h-7.75c-0.21,0-0.38-0.07-0.53-0.2c-0.14-0.13-0.21-0.29-0.21-0.46v-1.6h11.14v14.33
			c-1.01,0.7-2.05,1.33-3.14,1.88c-1.08,0.55-2.24,1.01-3.48,1.38s-2.56,0.66-3.99,0.86s-2.98,0.3-4.67,0.3
			c-2.91,0-5.56-0.49-7.97-1.47c-2.4-0.98-4.47-2.37-6.18-4.16c-1.72-1.79-3.05-3.97-4-6.51c-0.95-2.55-1.42-5.38-1.42-8.49
			s0.47-5.94,1.42-8.48s2.3-4.7,4.05-6.5s3.87-3.18,6.37-4.16s5.3-1.47,8.39-1.47c1.54,0,2.96,0.1,4.26,0.31
			c1.3,0.21,2.51,0.52,3.63,0.93s2.17,0.91,3.13,1.51c0.97,0.6,1.9,1.29,2.79,2.07l-0.77,1.25c-0.17,0.29-0.41,0.43-0.71,0.43
			c-0.17,0-0.33-0.04-0.48-0.11c-0.29-0.11-0.7-0.38-1.24-0.8s-1.27-0.86-2.19-1.31c-0.92-0.46-2.08-0.86-3.46-1.23
			c-1.39-0.36-3.07-0.54-5.04-0.54c-2.62,0-4.99,0.42-7.1,1.25s-3.91,2.03-5.4,3.59c-1.49,1.56-2.64,3.46-3.45,5.7
			s-1.21,4.76-1.21,7.55c0,2.85,0.41,5.41,1.23,7.67s1.96,4.18,3.43,5.74s3.24,2.77,5.3,3.61
			C-548.02,1068.52-545.75,1068.93-543.26,1068.93z"/>
		<path fill="#0A4959" d="M-508.97,1070.84h-2.94v-40.33h2.94V1070.84z"/>
		<path fill="#0A4959" d="M-464.63,1030.52v2.48h-14.16v37.85h-2.91V1033h-14.25v-2.48H-464.63z"/>
		<path fill="#0A4959" d="M-425.61,1070.84h-2.25c-0.27,0-0.48-0.07-0.66-0.21s-0.3-0.33-0.4-0.56l-4.76-11.71h-19.81l-4.73,11.71
			c-0.08,0.21-0.21,0.39-0.4,0.54s-0.42,0.23-0.68,0.23h-2.22l16.5-40.33h2.91L-425.61,1070.84z M-452.6,1056.19h18.07l-8.24-20.38
			c-0.13-0.32-0.27-0.69-0.4-1.1s-0.27-0.84-0.4-1.3c-0.13,0.46-0.27,0.89-0.4,1.3s-0.27,0.78-0.4,1.13L-452.6,1056.19z"/>
		<path fill="#0A4959" d="M-411.36,1068.36h19.12v2.48h-22.03v-40.33h2.91V1068.36z"/>
	</g>
</g>
</svg>
